<svg width="145" height="61" viewBox="0 0 145 61" fill="none" xmlns="http://www.w3.org/2000/svg">
<path fill-rule="evenodd" clip-rule="evenodd" d="M21.952 26.1897C21.952 28.1024 22.3293 29.9235 23.0267 31.5958C24.9361 36.1886 29.6238 39.4644 33.4196 42.4652C37.1583 37.9525 39.2277 32.3173 39.2277 26.4073C39.2277 20.4972 37.6728 16.3052 34.7573 12.1132C32.6422 9.05513 29.8867 6.50098 26.674 4.63405L25.1076 3.71776L23.5298 4.63405C21.8148 5.63051 20.2256 6.82168 18.7964 8.18466C27.097 10.3608 32.928 17.7713 32.928 26.4073C33.0423 29.935 32.8708 30.3931 31.7732 32.9473C30.5499 31.7217 29.5437 30.8856 28.8349 29.1791C28.4576 28.2628 28.2403 25.9148 28.2403 24.8382C28.2403 17.5422 22.638 12.7661 15.4579 12.0903C11.2618 11.6894 7.12296 13.1784 4.13886 16.1678C1.5778 18.7334 0 22.2611 0 26.1782C0 33.8292 2.42387 40.4036 6.26546 45.8784C10.713 52.2236 17.0814 57.0341 23.7242 60.2984L25.0962 60.9742L26.4682 60.2984C33.1223 57.0341 39.4793 52.2236 43.9268 45.8784C47.7684 40.4036 50.1923 33.8292 50.1923 26.1782C50.1923 18.5272 46.1792 14.5185 40.3139 12.6745C43.2637 17.5651 44.4185 24.4029 43.641 30.061C43.0122 34.6768 41.2629 38.7428 38.7933 42.2476C35.2947 47.2413 30.3555 51.147 25.0962 53.9417C19.8368 51.147 14.8976 47.2299 11.399 42.2476C8.2663 37.7807 6.28833 32.4204 6.28833 26.1782C6.28833 19.936 10.1757 19.0541 12.2108 18.573C11.399 21.0356 10.9646 23.6699 10.9646 26.3958C10.9646 30.9429 12.1879 35.238 14.326 38.9375C16.5326 42.7744 19.7111 45.9585 23.5184 48.1691L25.0962 49.0854L26.674 48.1691C27.9316 47.4361 29.1321 46.5999 30.2411 45.6607C26.4224 42.7172 22.2378 40.0829 19.7682 35.8107C18.179 33.0504 17.2758 29.8434 17.2758 26.3958C17.2758 22.9483 17.7102 21.7571 18.4991 19.6726C18.9107 19.9589 19.2995 20.2682 19.6539 20.6232C21.0716 22.0435 21.952 22.3184 21.952 26.1668V26.1897Z" fill="#242424"/>
<path d="M76.1916 41.5661C74.1305 41.5661 72.1928 41.1597 70.3785 40.3468C68.5642 39.5195 66.9675 38.3801 65.5886 36.9286C64.2243 35.4772 63.1502 33.8007 62.3664 31.8993C61.5971 29.9834 61.2125 27.9368 61.2125 25.7596C61.2125 23.5679 61.5971 21.5213 62.3664 19.6199C63.1502 17.7039 64.2243 16.0275 65.5886 14.5905C66.9675 13.1391 68.5642 12.0069 70.3785 11.1941C72.1928 10.3668 74.1305 9.9531 76.1916 9.9531C78.6591 9.9531 80.9307 10.5264 83.0063 11.6731C85.0819 12.8052 86.8018 14.322 88.1662 16.2234L82.3313 19.3586C81.5766 18.4877 80.6694 17.791 79.6098 17.2685C78.5503 16.746 77.4108 16.4847 76.1916 16.4847C75.0304 16.4847 73.9346 16.7242 72.904 17.2032C71.888 17.6822 70.9881 18.3498 70.2043 19.2062C69.435 20.0481 68.8327 21.0278 68.3972 22.1454C67.9618 23.2631 67.7441 24.4678 67.7441 25.7596C67.7441 27.0369 67.9618 28.2343 68.3972 29.352C68.8327 30.4696 69.435 31.4566 70.2043 32.313C70.9881 33.1548 71.888 33.8225 72.904 34.316C73.9346 34.795 75.0304 35.0345 76.1916 35.0345C77.4108 35.0345 78.5503 34.7732 79.6098 34.2507C80.6694 33.7136 81.5766 33.0024 82.3313 32.117L88.1662 35.2957C86.8018 37.1826 85.0819 38.6994 83.0063 39.8461C80.9307 40.9927 78.6591 41.5661 76.1916 41.5661ZM95.1105 41V10.5192H106.65C108.319 10.5192 109.828 10.8675 111.178 11.5642C112.528 12.2464 113.595 13.2189 114.379 14.4817C115.177 15.7445 115.576 17.225 115.576 18.9232C115.576 19.5618 115.496 20.2367 115.337 20.948C115.177 21.6447 114.894 22.2978 114.488 22.9075C114.081 23.5171 113.501 23.9961 112.746 24.3444C113.718 24.5766 114.488 25.0121 115.054 25.6507C115.62 26.2894 116.041 27.0296 116.316 27.8715C116.607 28.6988 116.795 29.5407 116.882 30.397C116.97 31.2389 117.013 32.0009 117.013 32.6831C117.013 34.2216 116.599 35.6223 115.772 36.8851C114.945 38.1334 113.834 39.1349 112.441 39.8896C111.048 40.6299 109.509 41 107.825 41H95.1105ZM101.642 35.4699H107.129C107.883 35.4699 108.566 35.2957 109.175 34.9474C109.799 34.5845 110.293 34.091 110.656 33.4669C111.033 32.8427 111.222 32.1315 111.222 31.3332C111.222 30.6655 111.033 30.0342 110.656 29.4391C110.293 28.8294 109.799 28.3359 109.175 27.9586C108.566 27.5812 107.883 27.3925 107.129 27.3925H101.642V35.4699ZM101.642 21.9495H105.866C106.737 21.9495 107.484 21.6592 108.108 21.0786C108.733 20.498 109.045 19.765 109.045 18.8796C109.045 17.9797 108.733 17.2903 108.108 16.8113C107.484 16.3323 106.737 16.0928 105.866 16.0928H101.642V21.9495ZM123.29 41V10.5192H142.711V17.0508H129.822V21.4052H139.75V27.9368H129.822V34.4684H142.711V41H123.29Z" fill="black"/>
<path d="M71.1608 55.5566H67.0076V48.8339H71.1608V49.8959H68.1455V51.6785H70.8763V52.712H68.1455V54.4947H71.1608V55.5566ZM85.9435 55.5566H84.7583L81.4396 50.4648V55.5566H80.3017V48.8339H81.7525L84.8057 53.6033V48.8339H85.9435V55.5566ZM99.4805 55.5566H95.3274V48.8339H99.4805V49.8959H96.4652V51.6785H99.196V52.712H96.4652V54.4947H99.4805V55.5566ZM112.016 55.5566L110.603 52.9017H109.769V55.5566H108.621V48.8339H111.201C111.833 48.8339 112.342 49.0299 112.727 49.4218C113.113 49.8074 113.306 50.291 113.306 50.8725C113.306 51.3529 113.17 51.7638 112.898 52.1052C112.626 52.4465 112.256 52.6741 111.788 52.7879L113.306 55.5566H112.016ZM109.769 51.8966H110.992C111.34 51.8966 111.618 51.8049 111.826 51.6216C112.041 51.432 112.149 51.1823 112.149 50.8725C112.149 50.5565 112.041 50.3068 111.826 50.1234C111.618 49.9338 111.34 49.839 110.992 49.839H109.769V51.8966ZM128.213 55.5566H127.293L127.208 54.7033C127.044 54.9814 126.784 55.2184 126.43 55.4144C126.076 55.6041 125.65 55.6989 125.15 55.6989C124.234 55.6989 123.453 55.3828 122.808 54.7507C122.164 54.1122 121.841 53.2588 121.841 52.1905C121.841 51.4825 122.002 50.8567 122.325 50.3131C122.653 49.7694 123.071 49.3649 123.576 49.0994C124.082 48.8276 124.632 48.6917 125.226 48.6917C126.004 48.6917 126.655 48.8845 127.18 49.2701C127.711 49.6557 128.071 50.1456 128.26 50.7398L127.189 51.1475C127.069 50.7429 126.838 50.4079 126.497 50.1424C126.155 49.8769 125.732 49.7442 125.226 49.7442C124.626 49.7442 124.104 49.9559 123.662 50.3795C123.219 50.803 122.998 51.4067 122.998 52.1905C122.998 52.9681 123.213 53.5749 123.643 54.0111C124.073 54.4409 124.597 54.6558 125.217 54.6558C125.824 54.6558 126.285 54.4978 126.601 54.1817C126.924 53.8594 127.104 53.5148 127.142 53.1482H124.923V52.1526H128.213V55.5566ZM138.702 52.712L136.35 48.8339H137.697L139.309 51.65L140.93 48.8339H142.21L139.84 52.712V55.5566H138.702V52.712Z" fill="black"/>
</svg>
