<svg width="244" height="46" viewBox="0 0 244 46" fill="none" xmlns="http://www.w3.org/2000/svg">
<path d="M70.322 19.5921V11.7939H74.5234V36.4999H70.4262V34.515C68.8637 35.7201 65.8429 36.9253 62.1623 36.9253C56.329 36.9253 50.4609 33.8769 50.4609 26.8231C50.4609 19.2022 56.6415 16.7919 61.4679 16.7919C65.3915 16.7919 68.447 17.9261 70.322 19.5921ZM54.5929 26.894C54.5929 31.5729 58.7595 33.5934 63.1692 33.5934C66.6067 33.5934 69.3845 32.2818 70.3567 29.8715V24.1292C69.3498 21.5416 66.4679 20.2301 62.9262 20.2301C58.829 20.2301 54.5929 22.1088 54.5929 26.894Z" fill="#242424"/>
<path d="M91.6053 16.7564V20.8682C87.6817 20.8682 83.1331 21.4353 82.6123 25.5116V36.4999H78.272V17.1818H82.3345V20.5137C83.8623 17.4653 86.9526 16.7564 91.6053 16.7564Z" fill="#242424"/>
<path d="M97.7965 17.1818V36.4999H93.4562V17.1818H97.7965Z" fill="#242424"/>
<path d="M125.381 17.1818L114.825 36.4999H110.416L99.7211 17.1818H104.339L112.811 32.211L121.145 17.1818H125.381Z" fill="#242424"/>
<path d="M148.415 27.0713V27.9574H128.659C129.179 31.8919 132.686 33.8415 137.027 33.8415C140.672 33.8415 143.207 32.6363 143.971 30.6513H148.52C147.617 34.1605 142.721 36.9253 137.096 36.9253C129.943 36.9253 124.596 33.5579 124.596 26.8586C124.596 20.1238 129.943 16.7564 137.027 16.7564C144.318 16.7564 148.415 22.2151 148.415 27.0713ZM128.763 25.2281H144.04C143.797 23.0304 141.263 19.8757 136.992 19.8757C132.756 19.8757 129.422 21.4353 128.763 25.2281Z" fill="#242424"/>
<path d="M164.72 16.7564V20.8682C160.796 20.8682 156.248 21.4353 155.727 25.5116V36.4999H151.387V17.1818H155.449V20.5137C156.977 17.4653 160.067 16.7564 164.72 16.7564Z" fill="#242424"/>
<path d="M190.295 28.2764V36.4999H183.906V28.4537C183.906 23.1722 182.309 21.7898 179.392 21.7898C177.239 21.7898 175.572 22.6405 173.524 24.4482V36.4999H167.204V11.7939H173.385V19.5567C175.121 17.9261 177.343 16.7564 180.364 16.7564C185.191 16.7564 190.295 18.6351 190.295 28.2764Z" fill="#242424"/>
<path d="M216.276 17.1818V36.4999H210.304V34.1605C208.568 35.7556 206.207 36.9253 203.186 36.9253C198.359 36.9253 193.325 35.0112 193.325 25.4053V17.1818H199.714V25.2635C199.714 30.5095 201.241 31.8919 203.394 31.8919C205.964 31.8919 208.082 30.8285 209.957 29.2335V17.1818H216.276Z" fill="#242424"/>
<path d="M226.015 11.7939V19.3794C227.681 17.7844 230.459 16.721 234.001 16.721C238.515 16.721 244.001 19.3794 244.001 26.8231C244.001 33.8769 238.723 36.9253 233.411 36.9253C230.008 36.9253 227.577 36.11 225.807 35.0112V36.4999H219.834V11.7939H226.015ZM237.925 26.894C237.925 23.3849 235.147 21.7898 231.848 21.7898C228.515 21.7898 225.494 23.5266 225.494 26.7168C225.494 29.9069 228.55 32.0692 231.883 32.0692C235.112 32.0692 237.925 30.4741 237.925 26.894Z" fill="#242424"/>
<path fill-rule="evenodd" clip-rule="evenodd" d="M10.1699 18.8868C14.3624 14.0194 18.1749 8.07074 18.1749 0.5H23.6002C23.6002 10.0985 18.7322 17.3335 14.2442 22.544C10.9247 26.3978 8.74944 29.2243 7.37399 31.9452C6.04832 34.5677 5.42534 37.1787 5.42534 40.6539V45.5L0 45.5V40.6539C0 36.3752 0.795564 32.8815 2.55276 29.4054C4.26016 26.0278 6.83209 22.7619 10.1699 18.8868Z" fill="#242424"/>
<path fill-rule="evenodd" clip-rule="evenodd" d="M28.6152 18.8868C32.8077 14.0194 36.6202 8.07074 36.6202 0.5H42.0455C42.0455 10.0985 37.1775 17.3335 32.6895 22.544C29.37 26.3978 27.1948 29.2243 25.8193 31.9452C24.4936 34.5677 23.8707 37.1787 23.8707 40.6539V45.5L18.4453 45.5V40.6539C18.4453 36.3752 19.2409 32.8815 20.9981 29.4054C22.7055 26.0278 25.2774 22.7619 28.6152 18.8868Z" fill="#242424"/>
</svg>
