<svg width="196" height="214" viewBox="0 0 196 214" fill="none" xmlns="http://www.w3.org/2000/svg">
<path d="M0.719141 105V2.1H15.8391V44.66H27.5991V2.1H42.7191V105H27.5991V60.2H15.8391V105H0.719141ZM74.0627 106.12C69.8161 106.12 66.1761 105.14 63.1427 103.18C60.1561 101.22 57.8694 98.56 56.2827 95.2C54.6961 91.84 53.9027 88.06 53.9027 83.86V2.1H69.0227V83.86C69.0227 85.8667 69.4194 87.64 70.2127 89.18C71.0061 90.6733 72.2894 91.42 74.0627 91.42C75.9294 91.42 77.2361 90.6733 77.9827 89.18C78.7294 87.64 79.1027 85.8667 79.1027 83.86V2.1H94.2227V83.86C94.2227 88.06 93.4061 91.84 91.7727 95.2C90.1861 98.56 87.8761 101.22 84.8427 103.18C81.8561 105.14 78.2627 106.12 74.0627 106.12ZM122.526 106.12C118.372 106.12 114.989 105.14 112.376 103.18C109.762 101.22 107.826 98.56 106.566 95.2C105.352 91.84 104.746 88.06 104.746 83.86V23.24C104.746 19.0867 105.562 15.33 107.196 11.97C108.829 8.61 111.162 5.95 114.196 3.98999C117.229 1.98333 120.799 0.979996 124.906 0.979996C128.032 0.979996 130.832 1.56333 133.306 2.72999C135.826 3.85 137.949 5.43666 139.676 7.49C141.449 9.54333 142.779 11.9233 143.666 14.63C144.599 17.29 145.066 20.16 145.066 23.24V39.06H129.946V23.24C129.946 21.1867 129.572 19.4133 128.826 17.92C128.079 16.4267 126.772 15.68 124.906 15.68C123.086 15.68 121.779 16.4733 120.986 18.06C120.239 19.6 119.866 21.3267 119.866 23.24V85.12C119.866 87.1267 120.262 88.9 121.056 90.44C121.849 91.9333 123.132 92.68 124.906 92.68C126.772 92.68 128.079 91.9333 128.826 90.44C129.572 88.9 129.946 87.1267 129.946 85.12V67.9H123.926V53.76H145.066V105H136.106L134.286 99.4C132.979 101.5 131.299 103.157 129.246 104.37C127.239 105.537 124.999 106.12 122.526 106.12ZM175.765 106.12C171.565 106.12 167.948 105.14 164.915 103.18C161.928 101.22 159.618 98.56 157.985 95.2C156.398 91.84 155.605 88.06 155.605 83.86V23.24C155.605 18.9933 156.398 15.2133 157.985 11.9C159.618 8.54 161.928 5.87999 164.915 3.91999C167.948 1.95999 171.565 0.979996 175.765 0.979996C179.965 0.979996 183.558 1.95999 186.545 3.91999C189.578 5.87999 191.888 8.54 193.475 11.9C195.108 15.26 195.925 19.04 195.925 23.24V83.86C195.925 88.06 195.108 91.84 193.475 95.2C191.888 98.56 189.578 101.22 186.545 103.18C183.558 105.14 179.965 106.12 175.765 106.12ZM175.765 91.42C177.632 91.42 178.938 90.65 179.685 89.11C180.432 87.5233 180.805 85.7733 180.805 83.86V23.24C180.805 21.3267 180.408 19.6 179.615 18.06C178.822 16.4733 177.538 15.68 175.765 15.68C174.038 15.68 172.755 16.4733 171.915 18.06C171.122 19.6 170.725 21.3267 170.725 23.24V83.86C170.725 85.7733 171.122 87.5233 171.915 89.11C172.708 90.65 173.992 91.42 175.765 91.42ZM46.4683 214H1.8609C1.50153 214 1.32184 213.775 1.32184 213.326L1.4566 118.519C1.4566 118.159 1.63629 117.979 1.99567 117.979H46.3336C46.6929 117.979 46.8726 118.204 46.8726 118.653V134.084C46.8726 134.443 46.6929 134.623 46.3336 134.623H18.0328V156.186H46.3336C46.6929 156.186 46.8726 156.365 46.8726 156.725L47.0074 172.357C47.0074 172.717 46.8277 172.896 46.4683 172.896H18.0328V197.02H46.4683C46.8277 197.02 47.0074 197.244 47.0074 197.693V213.461C47.0074 213.82 46.8277 214 46.4683 214ZM86.6177 214H70.9849C70.5357 214 70.3111 213.775 70.3111 213.326L70.4458 118.519C70.4458 118.159 70.6255 117.979 70.9849 117.979H86.4829C86.8423 117.979 87.022 118.159 87.022 118.519L87.1568 213.326C87.1568 213.775 86.9771 214 86.6177 214ZM139.772 214H124.207C123.802 214 123.6 213.775 123.6 213.326V134.623H105.676C105.227 134.623 105.002 134.398 105.002 133.949L105.137 118.519C105.137 118.159 105.317 117.979 105.676 117.979H158.1C158.594 117.979 158.841 118.159 158.841 118.519V133.949C158.841 134.398 158.662 134.623 158.302 134.623H140.176L140.311 213.326C140.311 213.775 140.131 214 139.772 214ZM192.926 214H177.293C176.844 214 176.62 213.775 176.62 213.326L176.754 118.519C176.754 118.159 176.934 117.979 177.293 117.979H192.791C193.151 117.979 193.331 118.159 193.331 118.519L193.465 213.326C193.465 213.775 193.286 214 192.926 214Z" fill="black"/>
</svg>
