<svg width="147" height="51" viewBox="0 0 147 51" fill="none" xmlns="http://www.w3.org/2000/svg">
<path d="M4.11683 4.365C4.11683 3.82285 4.21965 3.31808 4.4253 2.85071C4.63094 2.36464 4.91137 1.95335 5.26657 1.61684C5.62177 1.26164 6.03306 0.981214 6.50044 0.775569C6.96781 0.569923 7.47258 0.467101 8.01473 0.467101C8.53819 0.467101 9.03361 0.569923 9.50098 0.775569C9.98705 0.981214 10.4077 1.26164 10.7629 1.61684C11.1368 1.95335 11.4266 2.36464 11.6322 2.85071C11.8379 3.31808 11.9407 3.82285 11.9407 4.365C11.9407 4.90716 11.8379 5.41192 11.6322 5.8793C11.4266 6.34667 11.1368 6.75796 10.7629 7.11316C10.4077 7.46837 9.98705 7.74879 9.50098 7.95444C9.03361 8.16008 8.53819 8.2629 8.01473 8.2629C7.47258 8.2629 6.96781 8.16008 6.50044 7.95444C6.03306 7.74879 5.62177 7.46837 5.26657 7.11316C4.91137 6.75796 4.63094 6.34667 4.4253 5.8793C4.21965 5.41192 4.11683 4.90716 4.11683 4.365ZM11.6883 33.2487C11.6883 33.7535 11.5948 34.2302 11.4079 34.6789C11.2209 35.1089 10.9592 35.4921 10.6227 35.8286C10.3049 36.1465 9.92162 36.3988 9.47294 36.5858C9.04295 36.7727 8.57558 36.8662 8.07082 36.8662C7.56605 36.8662 7.08933 36.7727 6.64065 36.5858C6.21067 36.3988 5.82742 36.1465 5.49091 35.8286C5.1544 35.4921 4.88332 35.1089 4.67768 34.6789C4.49073 34.2302 4.39725 33.7535 4.39725 33.2487V14.4042C4.39725 13.8994 4.49073 13.4321 4.67768 13.0021C4.88332 12.5534 5.1544 12.1702 5.49091 11.8523C5.82742 11.5158 6.22001 11.2541 6.66869 11.0672C7.13607 10.8802 7.62214 10.7867 8.1269 10.7867C8.63167 10.7867 9.09904 10.8802 9.52902 11.0672C9.95901 11.2541 10.3329 11.5158 10.6507 11.8523C10.9872 12.1702 11.2396 12.5534 11.4079 13.0021C11.5948 13.4321 11.6883 13.8994 11.6883 14.4042V33.2487ZM38.8746 33.3048C38.8746 33.8096 38.7811 34.277 38.5942 34.7069C38.4072 35.1369 38.1455 35.5108 37.809 35.8286C37.4912 36.1465 37.1173 36.3988 36.6873 36.5858C36.2573 36.7727 35.7993 36.8662 35.3132 36.8662C34.8084 36.8662 34.3317 36.7727 33.883 36.5858C33.4343 36.3988 33.0417 36.1465 32.7052 35.8286C32.3687 35.5108 32.0977 35.1369 31.892 34.7069C31.6864 34.277 31.5835 33.8096 31.5835 33.3048V21.2466C31.5461 20.1996 31.1909 19.3584 30.5179 18.7227C29.8449 18.0684 28.9943 17.7413 27.9661 17.7413C27.48 17.7413 27.0126 17.8254 26.5639 17.9936C26.134 18.1619 25.7507 18.3956 25.4142 18.6947C25.0777 18.9938 24.8066 19.349 24.601 19.7603C24.414 20.1716 24.3205 20.6203 24.3205 21.1063V21.2466V33.3048C24.3205 33.8096 24.2271 34.277 24.0401 34.7069C23.8532 35.1369 23.5914 35.5108 23.2549 35.8286C22.9371 36.1465 22.5632 36.3988 22.1332 36.5858C21.7032 36.7727 21.2452 36.8662 20.7592 36.8662C20.2544 36.8662 19.7777 36.7727 19.329 36.5858C18.8803 36.3988 18.4877 36.1465 18.1512 35.8286C17.8147 35.5108 17.5436 35.1369 17.338 34.7069C17.1323 34.277 17.0295 33.8096 17.0295 33.3048V21.1624C17.0295 19.6855 17.3099 18.3021 17.8708 17.0122C18.4503 15.7035 19.2262 14.5631 20.1983 13.591C21.1891 12.6188 22.3389 11.8523 23.6475 11.2915C24.9562 10.7306 26.3489 10.4502 27.8259 10.4502C29.2467 10.4502 30.5834 10.7026 31.8359 11.2074C33.1072 11.7121 34.2289 12.4038 35.201 13.2825C36.2105 12.4038 37.3416 11.7121 38.5942 11.2074C39.8467 10.7026 41.1741 10.4502 42.5762 10.4502C44.0531 10.4502 45.4365 10.7306 46.7265 11.2915C48.0351 11.8336 49.1662 12.5814 50.1196 13.5349C51.0917 14.4696 51.8676 15.5726 52.4471 16.8439C53.0454 18.1152 53.3725 19.4705 53.4286 20.9101C53.4473 20.9848 53.4567 21.097 53.4567 21.2466V33.3048C53.4567 33.8096 53.3632 34.277 53.1762 34.7069C52.9893 35.1369 52.7276 35.5108 52.391 35.8286C52.0732 36.1465 51.6993 36.3988 51.2693 36.5858C50.8394 36.7727 50.3813 36.8662 49.8953 36.8662C49.3905 36.8662 48.9138 36.7727 48.4651 36.5858C48.0164 36.3988 47.6238 36.1465 47.2873 35.8286C46.9508 35.5108 46.6797 35.1369 46.4741 34.7069C46.2684 34.277 46.1656 33.8096 46.1656 33.3048V21.2466C46.1469 20.7231 46.0441 20.2464 45.8572 19.8164C45.6702 19.3864 45.4085 19.0219 45.072 18.7227C44.7541 18.4049 44.3709 18.1619 43.9222 17.9936C43.4922 17.8254 43.0249 17.7413 42.5201 17.7413C42.034 17.7413 41.576 17.8347 41.146 18.0217C40.716 18.1899 40.3328 18.4236 39.9963 18.7227C39.6785 19.0219 39.4167 19.3771 39.2111 19.7884C39.0054 20.1996 38.8933 20.639 38.8746 21.1063V21.2466V33.3048ZM64.0843 23.8265C64.0843 24.6677 64.2432 25.4623 64.561 26.2101C64.8975 26.9392 65.3369 27.5842 65.879 28.145C66.4399 28.6872 67.0849 29.1171 67.814 29.435C68.5618 29.7528 69.3469 29.9117 70.1695 29.9117C71.0108 29.9117 71.796 29.7528 72.5251 29.435C73.2729 29.1171 73.9179 28.6872 74.46 28.145C75.0022 27.5842 75.4322 26.9392 75.75 26.2101C76.0678 25.4623 76.2267 24.6677 76.2267 23.8265C76.2267 22.9852 76.0678 22.2 75.75 21.4709C75.4322 20.7231 75.0022 20.0781 74.46 19.536C73.9179 18.9751 73.2729 18.5358 72.5251 18.218C71.796 17.9002 71.0108 17.7413 70.1695 17.7413C69.3469 17.7413 68.5618 17.9002 67.814 18.218C67.0849 18.5358 66.4399 18.9751 65.879 19.536C65.3369 20.0781 64.8975 20.7231 64.561 21.4709C64.2432 22.2 64.0843 22.9852 64.0843 23.8265ZM56.7933 23.8265C56.7933 21.9757 57.1485 20.2464 57.8589 18.6386C58.5693 17.0122 59.5321 15.5913 60.7473 14.3762C61.9624 13.161 63.3739 12.2075 64.9817 11.5158C66.6081 10.8054 68.3374 10.4502 70.1695 10.4502C72.0203 10.4502 73.7496 10.8054 75.3574 11.5158C76.9838 12.2075 78.3953 13.161 79.5918 14.3762C80.807 15.5913 81.7604 17.0122 82.4521 18.6386C83.1625 20.2464 83.5177 21.9757 83.5177 23.8265C83.5177 25.6586 83.1625 27.3879 82.4521 29.0143C81.7604 30.6408 80.807 32.0616 79.5918 33.2768C78.3953 34.4919 76.9838 35.4547 75.3574 36.1651C73.7496 36.8569 72.0203 37.2027 70.1695 37.2027C68.3374 37.2027 66.6081 36.8569 64.9817 36.1651C63.3739 35.4547 61.9624 34.4919 60.7473 33.2768C59.5321 32.0616 58.5693 30.6408 57.8589 29.0143C57.1485 27.3879 56.7933 25.6586 56.7933 23.8265ZM87.4226 23.7984V4.50522C87.4226 3.98176 87.5161 3.48634 87.7031 3.01897C87.89 2.55159 88.1518 2.14965 88.4883 1.81314C88.8248 1.47663 89.2174 1.2149 89.666 1.02795C90.1147 0.822306 90.5914 0.719485 91.0962 0.719485C91.6197 0.719485 92.0964 0.822306 92.5264 1.02795C92.9751 1.2149 93.3583 1.47663 93.6761 1.81314C94.0126 2.14965 94.265 2.55159 94.4333 3.01897C94.6202 3.48634 94.7137 3.98176 94.7137 4.50522V11.9365C95.6297 11.4691 96.5925 11.1045 97.6021 10.8428C98.6303 10.5811 99.6959 10.4502 100.799 10.4502C102.65 10.4502 104.379 10.8054 105.987 11.5158C107.613 12.2075 109.025 13.161 110.221 14.3762C111.436 15.5913 112.39 17.0122 113.081 18.6386C113.792 20.2464 114.147 21.9757 114.147 23.8265C114.147 25.6586 113.792 27.3879 113.081 29.0143C112.39 30.6408 111.436 32.0616 110.221 33.2768C109.025 34.4919 107.613 35.4547 105.987 36.1651C104.379 36.8569 102.65 37.2027 100.799 37.2027C98.9668 37.2027 97.2375 36.8569 95.611 36.1651C94.0033 35.4547 92.5918 34.4919 91.3766 33.2768C90.1615 32.0616 89.1987 30.6408 88.4883 29.0143C87.7779 27.3879 87.4226 25.6586 87.4226 23.8265V23.7984ZM94.7137 23.8265C94.7137 24.6677 94.8726 25.4623 95.1904 26.2101C95.5269 26.9392 95.9662 27.5842 96.5084 28.145C97.0693 28.6872 97.7142 29.1171 98.4433 29.435C99.1911 29.7528 99.9763 29.9117 100.799 29.9117C101.64 29.9117 102.425 29.7528 103.154 29.435C103.902 29.1171 104.547 28.6872 105.089 28.145C105.632 27.5842 106.062 26.9392 106.379 26.2101C106.697 25.4623 106.856 24.6677 106.856 23.8265C106.856 22.9852 106.697 22.2 106.379 21.4709C106.062 20.7231 105.632 20.0781 105.089 19.536C104.547 18.9751 103.902 18.5358 103.154 18.218C102.425 17.9002 101.64 17.7413 100.799 17.7413C99.9763 17.7413 99.1911 17.9002 98.4433 18.218C97.7142 18.5358 97.0693 18.9751 96.5084 19.536C95.9662 20.0781 95.5269 20.7231 95.1904 21.4709C94.8726 22.2 94.7137 22.9852 94.7137 23.8265ZM124.769 24.2471V24.2751C124.769 25.079 124.91 25.8268 125.19 26.5185C125.489 27.1916 125.891 27.7805 126.396 28.2852C126.919 28.79 127.527 29.1826 128.219 29.463C128.929 29.7434 129.686 29.8836 130.49 29.8836C131.275 29.8836 132.004 29.7341 132.677 29.435C133.369 29.1358 133.967 28.7339 134.472 28.2291C134.977 27.7057 135.379 27.0981 135.678 26.4064C135.977 25.7147 136.136 24.9762 136.155 24.191V24.0508V24.0228V14.4042C136.155 13.8994 136.258 13.4321 136.463 13.0021C136.669 12.5534 136.94 12.1702 137.276 11.8523C137.613 11.5158 138.006 11.2541 138.454 11.0672C138.903 10.8802 139.38 10.7867 139.884 10.7867C140.389 10.7867 140.857 10.8802 141.287 11.0672C141.716 11.2541 142.09 11.5158 142.408 11.8523C142.745 12.1702 142.997 12.5534 143.165 13.0021C143.352 13.4321 143.446 13.8994 143.446 14.4042V24.0228V24.0789V24.191C143.446 25.6679 143.212 27.0794 142.745 28.4254C142.277 29.7715 141.623 30.996 140.782 32.099C139.94 33.1833 138.94 34.1274 137.781 34.9313C136.641 35.7165 135.398 36.3054 134.052 36.698V42.671C134.052 43.1945 133.958 43.6805 133.771 44.1292C133.584 44.5779 133.322 44.9611 132.986 45.2789C132.668 45.6155 132.285 45.8772 131.836 46.0641C131.406 46.2511 130.939 46.3446 130.434 46.3446C129.911 46.3446 129.425 46.2511 128.976 46.0641C128.527 45.8772 128.135 45.6155 127.798 45.2789C127.48 44.9611 127.228 44.5779 127.041 44.1292C126.854 43.6805 126.761 43.1945 126.761 42.671V36.6419C125.414 36.2306 124.171 35.6323 123.031 34.8472C121.909 34.0433 120.937 33.0992 120.114 32.0149C119.292 30.9119 118.647 29.6967 118.18 28.3693C117.712 27.042 117.478 25.6492 117.478 24.191V14.4042C117.478 13.8994 117.572 13.4321 117.759 13.0021C117.946 12.5534 118.198 12.1702 118.516 11.8523C118.853 11.5158 119.236 11.2541 119.666 11.0672C120.114 10.8802 120.591 10.7867 121.096 10.7867C121.601 10.7867 122.068 10.8802 122.498 11.0672C122.947 11.2541 123.339 11.5158 123.676 11.8523C124.012 12.1702 124.274 12.5534 124.461 13.0021C124.667 13.4321 124.769 13.8994 124.769 14.4042V24.2471Z" fill="black"/>
<path d="M80.8187 24.1995C80.8187 27.2616 77.1635 31.819 74.5503 31.819C72.9371 31.819 71.9617 30.6842 72.2899 29.832C74.7273 28.8623 76.0256 26.6237 76.1068 24.1995C76.024 20.9811 74.0749 19.1739 72.2899 18.4386C72.043 17.5528 72.5307 16.5801 74.5503 16.5801C77.1635 16.5801 80.8187 21.1375 80.8187 24.1995Z" fill="#838383"/>
<path d="M59.4938 24.1995C59.4938 27.2616 63.149 31.819 65.7622 31.819C67.3754 31.819 68.3508 30.6842 68.0226 29.832C65.5852 28.8623 64.2869 26.6237 64.2057 24.1995C64.2885 20.9811 66.2376 19.1739 68.0226 18.4386C68.2695 17.5528 67.7818 16.5801 65.7622 16.5801C63.149 16.5801 59.4938 21.1375 59.4938 24.1995Z" fill="#C0C0C0"/>
<path d="M67.3648 40.2506C67.3648 40.1595 67.3821 40.0746 67.4167 39.996C67.4513 39.9142 67.4984 39.845 67.5582 39.7885C67.6179 39.7287 67.6871 39.6815 67.7657 39.647C67.8443 39.6124 67.9292 39.5951 68.0204 39.5951C68.1084 39.5951 68.1917 39.6124 68.2703 39.647C68.3521 39.6815 68.4228 39.7287 68.4826 39.7885C68.5454 39.845 68.5942 39.9142 68.6288 39.996C68.6633 40.0746 68.6806 40.1595 68.6806 40.2506C68.6806 40.3418 68.6633 40.4267 68.6288 40.5053C68.5942 40.5839 68.5454 40.6531 68.4826 40.7128C68.4228 40.7726 68.3521 40.8197 68.2703 40.8543C68.1917 40.8889 68.1084 40.9062 68.0204 40.9062C67.9292 40.9062 67.8443 40.8889 67.7657 40.8543C67.6871 40.8197 67.6179 40.7726 67.5582 40.7128C67.4984 40.6531 67.4513 40.5839 67.4167 40.5053C67.3821 40.4267 67.3648 40.3418 67.3648 40.2506ZM68.6382 45.1084C68.6382 45.1933 68.6225 45.2735 68.591 45.3489C68.5596 45.4212 68.5156 45.4857 68.459 45.5423C68.4055 45.5957 68.3411 45.6382 68.2656 45.6696C68.1933 45.7011 68.1147 45.7168 68.0298 45.7168C67.9449 45.7168 67.8647 45.7011 67.7893 45.6696C67.7169 45.6382 67.6525 45.5957 67.5959 45.5423C67.5393 45.4857 67.4937 45.4212 67.4591 45.3489C67.4277 45.2735 67.412 45.1933 67.412 45.1084V41.9391C67.412 41.8542 67.4277 41.7756 67.4591 41.7033C67.4937 41.6278 67.5393 41.5633 67.5959 41.5099C67.6525 41.4533 67.7185 41.4093 67.794 41.3778C67.8726 41.3464 67.9543 41.3307 68.0392 41.3307C68.1241 41.3307 68.2027 41.3464 68.275 41.3778C68.3474 41.4093 68.4102 41.4533 68.4637 41.5099C68.5203 41.5633 68.5627 41.6278 68.591 41.7033C68.6225 41.7756 68.6382 41.8542 68.6382 41.9391V45.1084ZM74.2905 45.1273C74.2905 45.2122 74.2748 45.2908 74.2433 45.3631C74.2119 45.4354 74.1694 45.4998 74.116 45.5564C74.0625 45.6099 73.9997 45.6523 73.9273 45.6838C73.855 45.7121 73.7764 45.7262 73.6915 45.7262C73.6066 45.7262 73.5265 45.7121 73.451 45.6838C73.3755 45.6523 73.3079 45.6099 73.2482 45.5564C73.1916 45.4998 73.146 45.4354 73.1114 45.3631C73.08 45.2908 73.0643 45.2122 73.0643 45.1273V43.4766C73.0643 43.4671 73.0643 43.4577 73.0643 43.4483C73.0643 43.4357 73.0658 43.4247 73.069 43.4153C73.0627 43.2895 73.0344 43.1716 72.9841 43.0615C72.9369 42.9483 72.8725 42.8509 72.7907 42.7691C72.709 42.6842 72.6131 42.6182 72.503 42.571C72.393 42.5239 72.2735 42.5003 72.1446 42.5003C72.0094 42.5003 71.8852 42.5255 71.772 42.5758C71.662 42.6229 71.5661 42.689 71.4843 42.7738C71.4057 42.8587 71.3444 42.9594 71.3004 43.0757C71.2564 43.1889 71.2343 43.3131 71.2343 43.4483V45.1273C71.2343 45.2122 71.2186 45.2908 71.1872 45.3631C71.1557 45.4354 71.1133 45.4998 71.0598 45.5564C71.0064 45.6099 70.9435 45.6523 70.8712 45.6838C70.7989 45.7121 70.7203 45.7262 70.6354 45.7262C70.5505 45.7262 70.4703 45.7121 70.3949 45.6838C70.3194 45.6523 70.2534 45.6099 70.1968 45.5564C70.1402 45.4998 70.0946 45.4354 70.06 45.3631C70.0254 45.2908 70.0081 45.2122 70.0081 45.1273V43.4766V43.453V43.4483C70.0081 43.1464 70.0631 42.8635 70.1732 42.5993C70.2832 42.3352 70.4342 42.1057 70.6259 41.9108C70.8177 41.7127 71.0426 41.5571 71.3004 41.4439C71.5613 41.3307 71.8427 41.2741 72.1446 41.2741C72.4464 41.2741 72.7278 41.3307 72.9888 41.4439C73.2498 41.5571 73.4761 41.7127 73.6679 41.9108C73.8629 42.1057 74.0154 42.3352 74.1254 42.5993C74.2355 42.8635 74.2905 43.1464 74.2905 43.4483V43.4719V43.4766V45.1273ZM76.7871 41.3307H78.2303C78.3152 41.3307 78.3953 41.348 78.4708 41.3825C78.5463 41.414 78.6107 41.458 78.6642 41.5146C78.7208 41.5712 78.7648 41.6372 78.7962 41.7127C78.8308 41.785 78.8481 41.8636 78.8481 41.9485C78.8481 42.0302 78.8308 42.1089 78.7962 42.1843C78.7648 42.2566 78.7208 42.3211 78.6642 42.3777C78.6107 42.4311 78.5463 42.4752 78.4708 42.5097C78.3953 42.5412 78.3152 42.5569 78.2303 42.5569H76.7871V43.5332C76.7871 43.6747 76.8138 43.8067 76.8673 43.9293C76.9207 44.052 76.993 44.1589 77.0842 44.25C77.1785 44.3412 77.287 44.4135 77.4096 44.467C77.5323 44.5204 77.6643 44.5472 77.8058 44.5472C77.9316 44.5472 78.0479 44.5299 78.1548 44.4953C78.2617 44.4607 78.3576 44.4057 78.4425 44.3302C78.4834 44.2925 78.5242 44.2595 78.5651 44.2312C78.606 44.2029 78.6516 44.1793 78.7019 44.1604C78.7962 44.1258 78.8937 44.1164 78.9943 44.1321C79.0949 44.1447 79.1908 44.1919 79.282 44.2736C79.348 44.3365 79.3952 44.4088 79.4235 44.4906C79.4549 44.5723 79.4675 44.6572 79.4612 44.7452C79.4549 44.8333 79.4329 44.9197 79.3952 45.0046C79.3575 45.0864 79.3056 45.1587 79.2395 45.2216C79.0509 45.404 78.8339 45.5423 78.5887 45.6366C78.3466 45.7278 78.0856 45.7734 77.8058 45.7734C77.4945 45.7734 77.2021 45.7152 76.9286 45.5989C76.6582 45.4794 76.4208 45.3191 76.2164 45.1178C76.0152 44.9135 75.8548 44.6745 75.7354 44.401C75.619 44.1274 75.5609 43.835 75.5609 43.5237V40.6845C75.5609 40.5996 75.5766 40.5195 75.608 40.444C75.6426 40.3686 75.6882 40.3025 75.7448 40.2459C75.8014 40.1893 75.8658 40.1453 75.9382 40.1139C76.0136 40.0793 76.0938 40.062 76.1787 40.062C76.2636 40.062 76.3422 40.0777 76.4145 40.1092C76.49 40.1406 76.5544 40.1846 76.6079 40.2412C76.6645 40.2978 76.7085 40.3638 76.7399 40.4393C76.7714 40.5148 76.7871 40.5965 76.7871 40.6845V41.3307ZM81.5859 44.0708C81.6834 44.2312 81.8091 44.3522 81.9632 44.434C82.1204 44.5126 82.2933 44.5519 82.482 44.5519C82.6077 44.5519 82.7146 44.5424 82.8027 44.5236C82.8939 44.5016 82.974 44.467 83.0432 44.4198C83.1564 44.3412 83.2633 44.2941 83.3639 44.2783C83.4677 44.2626 83.5651 44.272 83.6563 44.3066C83.7192 44.3318 83.7758 44.3679 83.8261 44.4151C83.8796 44.4591 83.9236 44.511 83.9582 44.5707C83.9928 44.6305 84.0179 44.6965 84.0336 44.7688C84.0493 44.838 84.0525 44.9087 84.0431 44.9811C84.0336 45.0502 84.01 45.1194 83.9723 45.1886C83.9346 45.2546 83.8811 45.3159 83.812 45.3725C83.7522 45.4197 83.6815 45.4684 83.5997 45.5187C83.5211 45.5659 83.4284 45.6083 83.3215 45.6461C83.2177 45.6838 83.0967 45.7137 82.9583 45.7357C82.82 45.7608 82.6612 45.7734 82.482 45.7734C82.1707 45.7734 81.8783 45.7152 81.6048 45.5989C81.3312 45.4794 81.0907 45.3175 80.8832 45.1131C80.6788 44.9087 80.5169 44.6714 80.3974 44.401C80.2779 44.1274 80.2182 43.835 80.2182 43.5237C80.2182 43.2125 80.2779 42.9201 80.3974 42.6465C80.5169 42.373 80.6788 42.1356 80.8832 41.9344C81.0907 41.73 81.3312 41.5696 81.6048 41.4533C81.8783 41.3338 82.1707 41.2741 82.482 41.2741C82.787 41.2741 83.0762 41.3322 83.3498 41.4486C83.6233 41.5618 83.8623 41.719 84.0666 41.9202C84.271 42.1214 84.4329 42.3572 84.5524 42.6276C84.675 42.8949 84.7395 43.1826 84.7458 43.4907C84.7458 43.6636 84.6892 43.8036 84.576 43.9105C84.466 44.0174 84.3213 44.0708 84.1421 44.0708H81.5859ZM83.4865 43.0521C83.4016 42.8635 83.2727 42.7251 83.0998 42.6371C82.93 42.5459 82.7319 42.5003 82.5056 42.5003C82.2792 42.5003 82.0827 42.549 81.916 42.6465C81.7525 42.7408 81.6299 42.876 81.5482 43.0521H83.4865ZM86.982 45.1131C86.982 45.198 86.9663 45.2782 86.9349 45.3536C86.9034 45.426 86.8594 45.4888 86.8028 45.5423C86.7494 45.5957 86.6865 45.6382 86.6142 45.6696C86.5418 45.7011 86.4648 45.7168 86.3831 45.7168C86.2982 45.7168 86.218 45.7011 86.1425 45.6696C86.0671 45.6382 85.9995 45.5957 85.9397 45.5423C85.8831 45.4888 85.8376 45.426 85.803 45.3536C85.7715 45.2782 85.7558 45.198 85.7558 45.1131V43.6747V43.6322C85.7652 43.3178 85.8328 43.0222 85.9586 42.7455C86.0844 42.4657 86.2526 42.222 86.4632 42.0145C86.6739 41.807 86.9191 41.6419 87.199 41.5193C87.4788 41.3967 87.7759 41.3338 88.0904 41.3307H88.1187C88.3199 41.3307 88.4755 41.3888 88.5856 41.5052C88.6988 41.6184 88.7553 41.763 88.7553 41.9391C88.7553 42.0271 88.7381 42.1089 88.7035 42.1843C88.672 42.2598 88.6264 42.3258 88.5667 42.3824C88.5101 42.4358 88.4425 42.4783 88.3639 42.5097C88.2884 42.5412 88.2067 42.5569 88.1187 42.5569C87.9646 42.5569 87.8184 42.5868 87.68 42.6465C87.5448 42.7031 87.4254 42.7817 87.3216 42.8823C87.2178 42.9829 87.1361 43.1024 87.0764 43.2408C87.0166 43.376 86.9852 43.5206 86.982 43.6747V45.1131ZM91.4454 43.7548L92.3792 41.6985C92.4138 41.6199 92.461 41.5539 92.5207 41.5005C92.5804 41.4439 92.6465 41.4014 92.7188 41.3731C92.7911 41.3448 92.8666 41.3322 92.9452 41.3354C93.0269 41.3354 93.1071 41.3527 93.1857 41.3873C93.2643 41.4219 93.3303 41.469 93.3838 41.5288C93.4404 41.5885 93.4828 41.6561 93.5111 41.7316C93.5394 41.8039 93.5536 41.8809 93.5536 41.9626C93.5536 42.0444 93.5347 42.1246 93.497 42.2032L92.0113 45.3489C91.9516 45.4747 91.8699 45.5659 91.7661 45.6225C91.6623 45.6791 91.5664 45.7105 91.4784 45.7168C91.3338 45.7168 91.2111 45.6838 91.1105 45.6178C91.0131 45.5486 90.9376 45.459 90.8842 45.3489L89.3891 42.1985C89.3514 42.1199 89.3309 42.0397 89.3278 41.9579C89.3278 41.8762 89.3419 41.7992 89.3702 41.7268C89.3985 41.6545 89.441 41.5885 89.4976 41.5288C89.5542 41.4659 89.6202 41.4171 89.6957 41.3825C89.7743 41.348 89.8529 41.3307 89.9315 41.3307C90.0132 41.3275 90.0902 41.3401 90.1626 41.3684C90.2349 41.3967 90.3009 41.4391 90.3606 41.4957C90.4204 41.5492 90.4675 41.6152 90.5021 41.6938L91.4454 43.7548ZM95.5836 44.0708C95.6811 44.2312 95.8069 44.3522 95.9609 44.434C96.1181 44.5126 96.2911 44.5519 96.4797 44.5519C96.6055 44.5519 96.7124 44.5424 96.8004 44.5236C96.8916 44.5016 96.9718 44.467 97.0409 44.4198C97.1541 44.3412 97.261 44.2941 97.3616 44.2783C97.4654 44.2626 97.5629 44.272 97.6541 44.3066C97.7169 44.3318 97.7735 44.3679 97.8238 44.4151C97.8773 44.4591 97.9213 44.511 97.9559 44.5707C97.9905 44.6305 98.0156 44.6965 98.0314 44.7688C98.0471 44.838 98.0502 44.9087 98.0408 44.9811C98.0314 45.0502 98.0078 45.1194 97.97 45.1886C97.9323 45.2546 97.8789 45.3159 97.8097 45.3725C97.75 45.4197 97.6792 45.4684 97.5975 45.5187C97.5189 45.5659 97.4261 45.6083 97.3192 45.6461C97.2154 45.6838 97.0944 45.7137 96.956 45.7357C96.8177 45.7608 96.6589 45.7734 96.4797 45.7734C96.1684 45.7734 95.876 45.7152 95.6025 45.5989C95.3289 45.4794 95.0884 45.3175 94.8809 45.1131C94.6765 44.9087 94.5146 44.6714 94.3951 44.401C94.2756 44.1274 94.2159 43.835 94.2159 43.5237C94.2159 43.2125 94.2756 42.9201 94.3951 42.6465C94.5146 42.373 94.6765 42.1356 94.8809 41.9344C95.0884 41.73 95.3289 41.5696 95.6025 41.4533C95.876 41.3338 96.1684 41.2741 96.4797 41.2741C96.7847 41.2741 97.074 41.3322 97.3475 41.4486C97.621 41.5618 97.86 41.719 98.0644 41.9202C98.2687 42.1214 98.4307 42.3572 98.5501 42.6276C98.6728 42.8949 98.7372 43.1826 98.7435 43.4907C98.7435 43.6636 98.6869 43.8036 98.5737 43.9105C98.4637 44.0174 98.3191 44.0708 98.1398 44.0708H95.5836ZM97.4843 43.0521C97.3994 42.8635 97.2705 42.7251 97.0975 42.6371C96.9278 42.5459 96.7297 42.5003 96.5033 42.5003C96.2769 42.5003 96.0804 42.549 95.9138 42.6465C95.7503 42.7408 95.6276 42.876 95.5459 43.0521H97.4843ZM104.045 45.1273C104.045 45.2122 104.03 45.2908 103.998 45.3631C103.967 45.4354 103.924 45.4998 103.871 45.5564C103.817 45.6099 103.755 45.6523 103.682 45.6838C103.61 45.7121 103.531 45.7262 103.446 45.7262C103.361 45.7262 103.281 45.7121 103.206 45.6838C103.13 45.6523 103.063 45.6099 103.003 45.5564C102.946 45.4998 102.901 45.4354 102.866 45.3631C102.835 45.2908 102.819 45.2122 102.819 45.1273V43.4766C102.819 43.4671 102.819 43.4577 102.819 43.4483C102.819 43.4357 102.821 43.4247 102.824 43.4153C102.818 43.2895 102.789 43.1716 102.739 43.0615C102.692 42.9483 102.627 42.8509 102.546 42.7691C102.464 42.6842 102.368 42.6182 102.258 42.571C102.148 42.5239 102.028 42.5003 101.899 42.5003C101.764 42.5003 101.64 42.5255 101.527 42.5758C101.417 42.6229 101.321 42.689 101.239 42.7738C101.161 42.8587 101.099 42.9594 101.055 43.0757C101.011 43.1889 100.989 43.3131 100.989 43.4483V45.1273C100.989 45.2122 100.973 45.2908 100.942 45.3631C100.911 45.4354 100.868 45.4998 100.815 45.5564C100.761 45.6099 100.698 45.6523 100.626 45.6838C100.554 45.7121 100.475 45.7262 100.39 45.7262C100.305 45.7262 100.225 45.7121 100.15 45.6838C100.074 45.6523 100.008 45.6099 99.9516 45.5564C99.895 45.4998 99.8494 45.4354 99.8148 45.3631C99.7803 45.2908 99.763 45.2122 99.763 45.1273V43.4766V43.453V43.4483C99.763 43.1464 99.818 42.8635 99.928 42.5993C100.038 42.3352 100.189 42.1057 100.381 41.9108C100.573 41.7127 100.797 41.5571 101.055 41.4439C101.316 41.3307 101.598 41.2741 101.899 41.2741C102.201 41.2741 102.483 41.3307 102.744 41.4439C103.005 41.5571 103.231 41.7127 103.423 41.9108C103.618 42.1057 103.77 42.3352 103.88 42.5993C103.99 42.8635 104.045 43.1464 104.045 43.4483V43.4719V43.4766V45.1273ZM109.574 43.519V43.5237V43.5473V43.5567C109.568 43.8617 109.505 44.1494 109.386 44.4198C109.266 44.6871 109.104 44.9213 108.9 45.1225C108.696 45.3238 108.458 45.4826 108.188 45.5989C107.918 45.7152 107.63 45.7734 107.325 45.7734C107.014 45.7734 106.721 45.7152 106.448 45.5989C106.177 45.4794 105.94 45.3175 105.735 45.1131C105.534 44.9087 105.374 44.6698 105.254 44.3962C105.138 44.1227 105.08 43.8319 105.08 43.5237C105.08 43.2125 105.138 42.9216 105.254 42.6512C105.374 42.3777 105.534 42.1387 105.735 41.9344C105.94 41.73 106.177 41.5696 106.448 41.4533C106.721 41.3338 107.014 41.2741 107.325 41.2741C107.51 41.2741 107.688 41.2961 107.858 41.3401C108.028 41.3841 108.191 41.4454 108.348 41.524V40.2742C108.348 40.1862 108.362 40.1029 108.391 40.0243C108.422 39.9457 108.465 39.8781 108.518 39.8215C108.575 39.7649 108.639 39.7209 108.711 39.6894C108.787 39.6548 108.869 39.6375 108.957 39.6375C109.042 39.6375 109.122 39.6548 109.197 39.6894C109.273 39.7209 109.339 39.7649 109.395 39.8215C109.452 39.8781 109.496 39.9457 109.527 40.0243C109.559 40.1029 109.574 40.1862 109.574 40.2742V43.519ZM108.348 43.5237C108.348 43.3822 108.32 43.2502 108.263 43.1276C108.21 43.0018 108.136 42.8933 108.042 42.8021C107.951 42.7078 107.842 42.6339 107.716 42.5805C107.594 42.527 107.463 42.5003 107.325 42.5003C107.183 42.5003 107.05 42.527 106.924 42.5805C106.801 42.6339 106.694 42.7078 106.603 42.8021C106.512 42.8933 106.44 43.0018 106.386 43.1276C106.333 43.2502 106.306 43.3822 106.306 43.5237C106.306 43.6652 106.333 43.7988 106.386 43.9246C106.44 44.0472 106.512 44.1557 106.603 44.25C106.694 44.3412 106.801 44.4135 106.924 44.467C107.05 44.5204 107.183 44.5472 107.325 44.5472C107.463 44.5472 107.594 44.5204 107.716 44.467C107.842 44.4135 107.951 44.3412 108.042 44.25C108.136 44.1557 108.21 44.0472 108.263 43.9246C108.32 43.7988 108.348 43.6652 108.348 43.5237ZM110.701 43.5237C110.701 43.2125 110.76 42.9216 110.88 42.6512C110.999 42.3777 111.161 42.1387 111.366 41.9344C111.57 41.73 111.807 41.5696 112.078 41.4533C112.351 41.3338 112.642 41.2741 112.95 41.2741C113.255 41.2741 113.543 41.3322 113.813 41.4486C114.084 41.5649 114.32 41.7237 114.521 41.9249C114.725 42.123 114.887 42.3572 115.007 42.6276C115.126 42.898 115.189 43.1857 115.195 43.4907V43.5002V43.5237V45.0895C115.195 45.1744 115.178 45.2562 115.143 45.3348C115.112 45.4102 115.068 45.4763 115.011 45.5329C114.955 45.5895 114.889 45.635 114.813 45.6696C114.738 45.7011 114.656 45.7168 114.568 45.7168C114.452 45.7168 114.35 45.6901 114.261 45.6366C114.173 45.5832 114.104 45.5109 114.054 45.4197C113.89 45.5297 113.716 45.6162 113.53 45.6791C113.345 45.742 113.152 45.7734 112.95 45.7734C112.642 45.7734 112.351 45.7152 112.078 45.5989C111.807 45.4794 111.57 45.3175 111.366 45.1131C111.161 44.9087 110.999 44.6698 110.88 44.3962C110.76 44.1227 110.701 43.8319 110.701 43.5237ZM111.927 43.5237C111.927 43.6652 111.954 43.7988 112.007 43.9246C112.064 44.0472 112.138 44.1557 112.229 44.25C112.323 44.3412 112.432 44.4135 112.554 44.467C112.68 44.5204 112.812 44.5472 112.95 44.5472C113.092 44.5472 113.224 44.5204 113.347 44.467C113.472 44.4135 113.581 44.3412 113.672 44.25C113.763 44.1557 113.835 44.0472 113.889 43.9246C113.942 43.7988 113.969 43.6652 113.969 43.5237C113.969 43.3822 113.942 43.2502 113.889 43.1276C113.835 43.0018 113.763 42.8933 113.672 42.8021C113.581 42.7078 113.472 42.6339 113.347 42.5805C113.224 42.527 113.092 42.5003 112.95 42.5003C112.812 42.5003 112.68 42.527 112.554 42.5805C112.432 42.6339 112.323 42.7078 112.229 42.8021C112.138 42.8933 112.064 43.0018 112.007 43.1276C111.954 43.2502 111.927 43.3822 111.927 43.5237ZM117.558 43.9718C117.426 43.912 117.288 43.8476 117.143 43.7784C116.999 43.7061 116.865 43.6196 116.742 43.519C116.62 43.4153 116.519 43.2942 116.441 43.1559C116.362 43.0144 116.323 42.8446 116.323 42.6465C116.323 42.4453 116.36 42.2598 116.436 42.09C116.514 41.9202 116.624 41.7756 116.766 41.6561C116.907 41.5366 117.077 41.4439 117.275 41.3778C117.477 41.3087 117.7 41.2741 117.945 41.2741C118.074 41.2741 118.211 41.2835 118.355 41.3024C118.503 41.3212 118.643 41.3527 118.775 41.3967C118.907 41.4407 119.025 41.4989 119.129 41.5712C119.236 41.6404 119.314 41.7268 119.365 41.8306C119.421 41.9501 119.44 42.0696 119.421 42.189C119.406 42.3054 119.365 42.4013 119.299 42.4767C119.226 42.5585 119.135 42.6151 119.025 42.6465C118.915 42.6779 118.807 42.6717 118.7 42.6276C118.634 42.6056 118.575 42.5852 118.525 42.5663C118.475 42.5443 118.425 42.5255 118.374 42.5097C118.327 42.4909 118.275 42.4767 118.219 42.4673C118.165 42.4579 118.104 42.4531 118.035 42.4531C117.843 42.4531 117.714 42.472 117.648 42.5097C117.582 42.5475 117.549 42.5962 117.549 42.6559C117.549 42.6937 117.565 42.7251 117.596 42.7503C117.631 42.7723 117.678 42.7943 117.738 42.8163C117.8 42.8383 117.876 42.8603 117.964 42.8823C118.052 42.9043 118.149 42.9326 118.256 42.9672C118.432 43.0238 118.601 43.0914 118.761 43.17C118.924 43.2455 119.068 43.3398 119.19 43.453C119.313 43.563 119.41 43.6935 119.483 43.8444C119.558 43.9954 119.596 44.1746 119.596 44.3821C119.596 44.577 119.555 44.7594 119.473 44.9292C119.395 45.0958 119.283 45.242 119.138 45.3678C118.994 45.4936 118.821 45.5926 118.619 45.6649C118.421 45.7372 118.203 45.7734 117.964 45.7734C117.826 45.7734 117.673 45.7592 117.506 45.7309C117.343 45.7058 117.181 45.6618 117.021 45.5989C116.863 45.536 116.716 45.4527 116.577 45.3489C116.442 45.2452 116.334 45.1147 116.252 44.9575C116.189 44.838 116.156 44.7264 116.153 44.6226C116.15 44.5157 116.169 44.423 116.209 44.3444C116.25 44.2658 116.309 44.2029 116.384 44.1557C116.463 44.1054 116.549 44.0771 116.643 44.0708C116.741 44.0614 116.843 44.0755 116.95 44.1133C117.06 44.151 117.167 44.217 117.271 44.3113C117.302 44.3428 117.343 44.3758 117.393 44.4104C117.444 44.4418 117.497 44.4717 117.554 44.5C117.613 44.5283 117.676 44.5519 117.742 44.5707C117.811 44.5865 117.882 44.5943 117.954 44.5943C118.068 44.5943 118.165 44.577 118.247 44.5424C118.329 44.5047 118.37 44.4544 118.37 44.3915C118.37 44.3475 118.335 44.3051 118.266 44.2642C118.197 44.2202 118.116 44.1809 118.025 44.1463C117.937 44.1086 117.848 44.0755 117.756 44.0472C117.665 44.0158 117.599 43.9906 117.558 43.9718Z" fill="black"/>
</svg>
