<svg width="201" height="38" viewBox="0 0 201 38" fill="none" xmlns="http://www.w3.org/2000/svg">
<path d="M21.2896 31.5082L30.5072 15.6909L39.7249 31.5082C40.6309 33.0628 39.5105 35.015 37.7123 35.015H23.3022C21.504 35.015 20.3836 33.0628 21.2896 31.5082Z" fill="#333333"/>
<path d="M0.320894 31.5081L18.0104 1.15695C18.9095 -0.385651 21.1364 -0.385648 22.0355 1.15695L29.1582 13.378L19.2773 30.3333C18.3694 31.8914 18.4791 33.6491 19.267 35.0151H2.33343C0.535219 35.0151 -0.585175 33.0628 0.320894 31.5081Z" fill="#333333"/>
<path d="M31.8574 13.378L38.9802 1.15695C39.8792 -0.385651 42.1062 -0.385648 43.0053 1.15695L60.6948 31.5082C61.6008 33.0628 60.4804 35.0151 58.6822 35.0151H41.7487C42.5366 33.6491 42.6463 31.8914 41.7383 30.3333L31.8574 13.378Z" fill="#333333"/>
<path d="M102.415 30.3512V3.89754H97.5314L88.1372 25.4261L78.8175 3.89754H73.8594V30.3512H77.4754V9.7554L86.4223 30.3512H89.7774L98.7989 9.7554V30.3512H102.415Z" fill="#333333"/>
<path d="M109.931 30.3512V12.4045H106.464V30.3512H109.931ZM105.681 5.61386C105.681 6.99437 106.8 8.11371 108.179 8.11371C109.596 8.11371 110.714 6.99437 110.714 5.61386C110.714 4.19603 109.596 3.07669 108.179 3.07669C106.8 3.07669 105.681 4.19603 105.681 5.61386Z" fill="#333333"/>
<path d="M119.433 22.5422V3.89754H114.091V30.3512H119.832L136.626 3.89754H130.407L119.433 22.5422Z" fill="#333333"/>
<path d="M136.213 19.0832C136.325 17.4042 137.741 15.464 140.313 15.464C143.147 15.464 144.34 17.255 144.414 19.0832H136.213ZM144.899 23.859C144.302 25.5007 143.035 26.6574 140.724 26.6574C138.263 26.6574 136.213 24.9038 136.101 22.4785H149.223C149.223 22.4039 149.298 21.6577 149.298 20.9488C149.298 15.0536 145.905 11.4344 140.239 11.4344C135.542 11.4344 131.217 15.2402 131.217 21.098C131.217 27.2917 135.654 30.9109 140.686 30.9109C145.197 30.9109 148.105 28.2618 149.037 25.0903L144.899 23.859Z" fill="#333333"/>
<path d="M157.415 30.3512V11.9941H152.456V30.3512H157.415ZM151.86 5.98697C151.86 7.62866 153.239 9.00918 154.917 9.00918C156.632 9.00918 157.974 7.62866 157.974 5.98697C157.974 4.27065 156.632 2.89014 154.917 2.89014C153.239 2.89014 151.86 4.27065 151.86 5.98697Z" fill="#333333"/>
<path d="M160.672 31.3586C161.194 34.8659 164.549 38 169.582 38C176.479 38 179.2 33.4107 179.2 28.3737V11.9941H174.428V14.1581C173.795 12.9269 172.117 11.6583 169.209 11.6583C164.177 11.6583 160.672 15.7625 160.672 20.613C160.672 25.7619 164.326 29.5304 169.209 29.5304C171.856 29.5304 173.571 28.3737 174.316 27.1797V28.5229C174.316 32.0675 172.564 33.6346 169.433 33.6346C167.084 33.6346 165.481 32.1794 165.146 30.1646L160.672 31.3586ZM170.067 25.2769C167.494 25.2769 165.668 23.4859 165.668 20.613C165.668 17.7773 167.606 15.9864 170.067 15.9864C172.452 15.9864 174.391 17.7773 174.391 20.613C174.391 23.4486 172.602 25.2769 170.067 25.2769Z" fill="#333333"/>
<path d="M186.945 21.098C186.945 17.74 188.884 15.7625 191.531 15.7625C194.14 15.7625 196.042 17.74 196.042 21.098C196.042 24.456 194.103 26.5828 191.531 26.5828C188.847 26.5828 186.945 24.4187 186.945 21.098ZM196.079 28.0752C196.079 28.9707 196.191 29.9408 196.265 30.3512H201C200.962 29.9408 200.851 28.6722 200.851 27.0305V11.9941H196.042V14.2701C195.594 13.2253 194.066 11.4717 190.785 11.4717C185.454 11.4717 181.95 15.7252 181.95 21.098C181.95 26.6574 185.529 30.8736 190.934 30.8736C193.395 30.8736 195.296 29.605 196.079 27.8513V28.0752Z" fill="#333333"/>
</svg>
