<svg width="213" height="46" viewBox="0 0 213 46" fill="none" xmlns="http://www.w3.org/2000/svg">
<path opacity="0.5" fill-rule="evenodd" clip-rule="evenodd" d="M116.753 37.9664C113.6 37.3924 110.715 36.9484 108.81 36.7732C108.018 36.7003 107.373 36.0467 107.373 35.2507L107.373 33.0889C107.373 32.2929 108.018 31.6509 108.812 31.7126C111.103 31.8908 114.413 32.4132 117.657 33.0035C121.094 33.6292 124.669 34.3721 127.302 34.9881C128.077 35.1694 128.546 35.952 128.353 36.7243L127.829 38.8216C127.636 39.5938 126.854 40.0634 126.079 39.8826C123.557 39.2944 120.101 38.5756 116.753 37.9664Z" fill="#121213"/>
<path d="M74.8643 39.0701C74.3505 39.0701 73.8756 38.7966 73.6177 38.3522L67.5314 27.863H62.6888V37.6289C62.6888 38.4249 62.0435 39.0701 61.2475 39.0701H57.7655C56.9695 39.0701 56.3242 38.4249 56.3242 37.6289V8.22738C56.3242 7.4314 56.9695 6.78613 57.7655 6.78613H69.2378C72.2202 6.78613 74.7568 7.83152 76.8476 9.92229C78.9384 12.0131 79.9838 14.5343 79.9838 17.486C79.9838 19.4845 79.415 21.3447 78.2773 23.0665C77.1397 24.7576 75.6331 26.0335 73.7576 26.8945L79.6316 36.8992C80.1957 37.86 79.5028 39.0701 78.3887 39.0701H74.8643ZM62.6888 12.7356V22.2825H69.2378C70.4369 22.2825 71.467 21.8213 72.3279 20.8989C73.1888 19.9457 73.6192 18.8081 73.6192 17.486C73.6192 16.1639 73.1888 15.0416 72.3279 14.1192C71.467 13.1968 70.4369 12.7356 69.2378 12.7356H62.6888Z" fill="#121213"/>
<path d="M145.301 17.4514C145.301 16.6554 145.947 16.0101 146.742 16.0101H149.809C150.605 16.0101 151.251 16.6554 151.251 17.4514V37.6289C151.251 38.4249 150.605 39.0701 149.809 39.0701H146.742C145.947 39.0701 145.301 38.4249 145.301 37.6289V36.4874C143.856 38.6397 141.566 39.7158 138.429 39.7158C135.908 39.7158 133.817 38.8703 132.157 37.1792C130.527 35.4881 129.713 33.1514 129.713 30.169V17.4514C129.713 16.6554 130.358 16.0101 131.154 16.0101H134.221C135.017 16.0101 135.662 16.6554 135.662 17.4514V29.431C135.662 30.9684 136.077 32.1521 136.907 32.9823C137.738 33.7817 138.844 34.1814 140.228 34.1814C141.765 34.1814 142.995 33.7048 143.918 32.7517C144.84 31.7985 145.301 30.3688 145.301 28.4625V17.4514Z" fill="#121213"/>
<path d="M178.998 15.3644C181.642 15.3644 183.748 16.2254 185.316 17.9472C186.915 19.669 187.714 21.975 187.714 24.8652V37.6289C187.714 38.4249 187.069 39.0701 186.273 39.0701H183.206C182.41 39.0701 181.765 38.4249 181.765 37.6289V25.2802C181.765 23.8966 181.427 22.8205 180.75 22.0518C180.074 21.2832 179.121 20.8988 177.891 20.8988C176.538 20.8988 175.477 21.3447 174.709 22.2363C173.971 23.128 173.602 24.4193 173.602 26.1104V37.6289C173.602 38.4249 172.956 39.0701 172.16 39.0701H169.093C168.297 39.0701 167.652 38.4249 167.652 37.6289V25.2802C167.652 23.8966 167.314 22.8205 166.638 22.0518C165.961 21.2832 165.008 20.8988 163.778 20.8988C162.456 20.8988 161.395 21.3447 160.596 22.2363C159.827 23.128 159.443 24.4193 159.443 26.1104V37.6289C159.443 38.4249 158.798 39.0701 158.002 39.0701H154.935C154.139 39.0701 153.493 38.4249 153.493 37.6289V17.4514C153.493 16.6554 154.139 16.0101 154.935 16.0101H158.002C158.798 16.0101 159.443 16.6554 159.443 17.4514V18.4545C160.826 16.3945 162.963 15.3644 165.853 15.3644C168.682 15.3644 170.773 16.4713 172.126 18.6851C173.663 16.4713 175.954 15.3644 178.998 15.3644Z" fill="#121213"/>
<path d="M196.334 31.3754C197.855 33.9602 200.322 34.795 203.738 33.8799C205.442 33.4233 206.705 32.6065 207.527 31.4294C207.942 30.8345 208.656 30.4561 209.357 30.6437L211.969 31.3426C212.782 31.5604 213.245 32.4328 212.863 33.1838C211.358 36.1454 208.752 38.1228 205.045 39.1159C201.363 40.1027 198.109 39.7808 195.285 38.1502C192.461 36.5196 190.595 34.0114 189.688 30.6258C188.788 27.2698 189.139 24.1836 190.74 21.3673C192.333 18.5213 194.852 16.6368 198.297 15.7137C201.564 14.8383 204.554 15.2467 207.268 16.9388C210.011 18.623 211.828 21.1282 212.719 24.4545C212.824 24.8445 212.911 25.2523 212.981 25.6779C213.095 26.3669 212.638 27.0068 211.964 27.1875L196.334 31.3754ZM195.052 26.9444L206.412 23.9005C205.679 22.4734 204.693 21.5279 203.455 21.0639C202.246 20.592 200.989 20.5311 199.682 20.8813C198.138 21.2951 196.968 22.0382 196.173 23.1107C195.37 24.1534 194.996 25.4313 195.052 26.9444Z" fill="#121213"/>
<path d="M87.6257 31.3754C89.1459 33.9602 91.6137 34.795 95.0291 33.8799C96.733 33.4233 97.996 32.6065 98.8181 31.4294C99.2336 30.8345 99.947 30.4561 100.648 30.6437L103.26 31.3426C104.074 31.5604 104.536 32.4328 104.154 33.1838C102.649 36.1454 100.043 38.1228 96.3366 39.1159C92.6539 40.1027 89.4004 39.7808 86.5761 38.1502C83.7519 36.5196 81.8862 34.0114 80.979 30.6258C80.0797 27.2698 80.4306 24.1836 82.0315 21.3673C83.6244 18.5213 86.1434 16.6368 89.5885 15.7137C92.8554 14.8383 95.8455 15.2467 98.559 16.9388C101.302 18.623 103.119 21.1282 104.011 24.4545C104.115 24.8445 104.202 25.2523 104.272 25.6779C104.386 26.3669 103.929 27.0068 103.255 27.1875L87.6257 31.3754ZM86.3429 26.9444L97.7028 23.9005C96.9702 22.4734 95.9847 21.5279 94.7463 21.0639C93.5376 20.592 92.2799 20.5311 90.9731 20.8813C89.4288 21.2951 88.2592 22.0382 87.4643 23.1107C86.6614 24.1534 86.2876 25.4313 86.3429 26.9444Z" fill="#121213"/>
<path fill-rule="evenodd" clip-rule="evenodd" d="M121.606 20.8383H106.653C105.857 20.8383 105.211 20.193 105.211 19.3971V17.2352C105.211 16.4392 105.857 15.7939 106.653 15.7939H124.308C125.701 15.7939 126.83 16.9232 126.83 18.3161C126.83 21.7924 126.034 26.3851 123.079 30.1618C120.23 33.8031 115.64 36.3479 108.796 36.6598C108.001 36.696 107.355 36.0468 107.355 35.2508V33.0889C107.355 32.293 108.003 31.6527 108.797 31.6095C114.267 31.3122 117.332 29.3205 119.106 27.0533C120.544 25.2157 121.295 22.9906 121.606 20.8383Z" fill="#121213"/>
<g clip-path="url(#clip0_8743_1077)">
<path d="M0 12.1906C0 8.15477 0 6.13683 0.785434 4.59533C1.47632 3.23938 2.57874 2.13697 3.93468 1.44608C5.47618 0.660645 7.49412 0.660645 11.53 0.660645H33.1488C37.1846 0.660645 39.2026 0.660645 40.7441 1.44608C42.1 2.13697 43.2024 3.23938 43.8933 4.59533C44.6787 6.13683 44.6787 8.15477 44.6787 12.1906V33.8094C44.6787 37.8453 44.6787 39.8632 43.8933 41.4047C43.2024 42.7607 42.1 43.8631 40.7441 44.554C39.2026 45.3394 37.1846 45.3394 33.1488 45.3394H11.53C7.49412 45.3394 5.47618 45.3394 3.93468 44.554C2.57874 43.8631 1.47632 42.7607 0.785434 41.4047C0 39.8632 0 37.8453 0 33.8094V12.1906Z" fill="#121213"/>
<path opacity="0.5" fill-rule="evenodd" clip-rule="evenodd" d="M22.3511 33.2823C19.1977 32.7083 16.3122 32.2643 14.408 32.0892C13.6153 32.0163 12.9707 31.3626 12.9707 30.5666L12.9707 28.4048C12.9707 27.6088 13.6161 26.9668 14.4097 27.0285C16.7002 27.2067 20.011 27.7291 23.2544 28.3194C26.6919 28.9451 30.2664 29.6881 32.8998 30.3041C33.6749 30.4853 34.1439 31.268 33.9508 32.0402L33.4265 34.1375C33.2335 34.9097 32.4518 35.3793 31.6767 35.1985C29.1546 34.6103 25.6984 33.8916 22.3511 33.2823Z" fill="white"/>
<path fill-rule="evenodd" clip-rule="evenodd" d="M27.2036 16.1542H12.2498C11.4539 16.1542 10.8086 15.509 10.8086 14.713V12.5511C10.8086 11.7551 11.4539 11.1099 12.2498 11.1099H29.9052C31.2981 11.1099 32.4273 12.2391 32.4273 13.6321C32.4273 17.1083 31.6314 21.701 28.6763 25.4777C25.8271 29.119 21.2373 31.6638 14.3932 31.9757C13.5981 32.0119 12.9521 31.3627 12.9521 30.5667V28.4049C12.9521 27.6089 13.5999 26.9686 14.3947 26.9254C19.864 26.6281 22.9295 24.6364 24.7035 22.3692C26.1413 20.5317 26.8919 18.3065 27.2036 16.1542Z" fill="white"/>
</g>
<defs>
<clipPath id="clip0_8743_1077">
<rect width="44.6787" height="44.6787" fill="white" transform="translate(0 0.660645)"/>
</clipPath>
</defs>
</svg>
