<svg width="112" height="56" viewBox="0 0 112 56" fill="none" xmlns="http://www.w3.org/2000/svg">
<mask id="mask0_8824_1400" style="mask-type:luminance" maskUnits="userSpaceOnUse" x="0" y="0" width="112" height="56">
<path d="M112 0.5H0V55.5H112V0.5Z" fill="white"/>
</mask>
<g mask="url(#mask0_8824_1400)">
<path fill-rule="evenodd" clip-rule="evenodd" d="M84.6249 0.5C72.855 0.752294 35.6769 0.0660547 0 33.0867C27.6845 41.7586 37.334 46.8135 65.6003 55.5C68.6749 52.6875 72.1591 50.3648 75.9319 48.6124C67.7975 48.9328 56.3832 48.4787 46.7974 43.9106C36.2512 38.885 33.0745 33.555 33.4125 28.6252C33.7972 23.0147 38.9133 17.0833 47.2603 13.5274C58.6451 8.67784 75.0421 7.72468 88.2063 11.0232C87.2919 7.42539 86.0944 3.90656 84.6249 0.5Z" fill="#2B2B2B"/>
<path d="M96.7441 30.2293C96.2226 30.0779 95.9618 29.5683 95.9618 28.7155C95.9262 28.3633 95.9931 28.0084 96.1544 27.6938C96.3156 27.3792 96.5642 27.1185 96.87 26.9434C96.8727 26.4185 96.7743 25.8981 96.5802 25.411C96.4883 25.2541 96.353 25.1276 96.1908 25.047C96.0286 24.9663 95.8465 24.935 95.6669 24.9568C94.7778 24.9568 93.9292 26.1115 93.1211 28.4208C92.3755 30.3889 91.9641 32.469 91.9039 34.5743C91.8451 35.283 91.9304 35.9964 92.1546 36.6708C92.2721 36.9097 92.4614 37.1052 92.6958 37.2294C92.9405 37.3168 93.1997 37.3555 93.4591 37.3434C94.1206 37.3434 94.7731 36.6597 95.4251 35.2923C96.14 33.6908 96.5857 31.9811 96.7441 30.2328M87.4106 18.65C87.4313 19.3525 87.1863 20.0366 86.725 20.5644C86.5252 20.8066 86.2749 21.0015 85.9918 21.1355C85.7088 21.2694 85.3999 21.339 85.087 21.3395C84.7749 21.341 84.4665 21.271 84.1852 21.1348C83.9039 20.9986 83.6571 20.7997 83.4636 20.5533C83.0166 20.023 82.7793 19.3456 82.7971 18.6505C82.7817 17.9495 83.0166 17.2662 83.4591 16.7245C83.6487 16.4711 83.8948 16.2661 84.1775 16.1258C84.4603 15.9856 84.7718 15.9141 85.087 15.9172C85.4036 15.917 85.7161 15.9887 86.0013 16.1268C86.2866 16.2649 86.5372 16.4659 86.7346 16.7149C87.1891 17.255 87.4298 17.9446 87.4106 18.652M65.105 21.1013L63.3662 18.3609L58.8103 21.1013H57.5369L63.6772 14.6426H64.286L66.0303 21.1013H65.105ZM62.8983 25.9216C62.8983 25.1012 62.6571 24.6909 62.1786 24.6909C61.4684 24.7136 60.7873 25.4478 60.1253 26.9015C59.4387 28.4414 58.9579 30.066 58.6955 31.7329C59.2889 31.663 59.8598 31.4623 60.3674 31.1453C60.8751 30.8283 61.3072 30.4027 61.6329 29.8988C62.4816 28.7512 62.9268 27.3517 62.8983 25.9216ZM50.0335 21.4818C50.9027 20.8949 51.3375 19.8353 51.3375 18.314C51.3229 17.82 51.1615 17.3418 50.8741 16.941C50.5698 16.4737 50.0094 16.2401 49.1929 16.2401C48.8325 16.2237 48.4726 16.2843 48.1371 16.4178C47.8015 16.5513 47.4979 16.7547 47.246 17.0146C46.7512 17.5698 46.4928 18.2982 46.5263 19.0431C46.502 19.7229 46.5969 20.4016 46.8067 21.0483C47.2084 22.0648 47.8153 22.9864 48.5891 23.7549L49.7772 25.0199C50.6152 25.8447 51.3404 26.7779 51.9338 27.7951C52.6568 29.1866 53.0394 30.7315 53.0497 32.3016C53.0497 35.1391 52.2188 37.3307 50.5571 38.8764C49.0217 40.3034 46.9895 41.0648 44.9003 40.9956C42.0888 40.9956 40.2062 39.9321 39.2526 37.8051C38.9045 36.9828 38.7351 36.0951 38.7556 35.2015C38.7556 33.4125 39.1902 32.0165 40.0596 31.0134C40.4035 30.5607 40.8434 30.1908 41.3473 29.9306C41.8512 29.6704 42.4063 29.5265 42.9725 29.5092C43.4247 29.472 43.8784 29.5594 44.2849 29.7622C44.6914 29.965 45.0353 30.2755 45.2795 30.6602C45.4699 30.9972 45.5713 31.3776 45.5739 31.7652C44.0954 31.7652 43.0662 32.3349 42.492 33.4859C42.279 33.9156 42.1714 34.3903 42.178 34.8705C42.1462 35.737 42.4029 36.5894 42.9073 37.2925C43.158 37.6153 43.4829 37.872 43.8539 38.0408C44.225 38.2095 44.6312 38.2852 45.0377 38.2613C45.494 38.2629 45.9442 38.1558 46.3514 37.9488C46.7587 37.7419 47.1114 37.4409 47.3809 37.0705C48.0326 36.2105 48.3657 35.1487 48.3228 34.0682C48.3513 33.0511 48.2024 32.0368 47.8829 31.0714C47.5956 30.3014 47.2245 29.5656 46.7766 28.8775C46.3371 28.203 45.8597 27.5544 45.3467 26.9348C44.8395 26.3138 44.3629 25.6871 43.9168 25.0547C42.9735 23.8205 42.4349 22.3216 42.3756 20.7657C42.3579 19.9374 42.5218 19.1154 42.8558 18.3581C43.1898 17.6008 43.6857 16.9269 44.308 16.3844C45.6174 15.2138 47.3216 14.5902 49.0726 14.6411C51.401 14.6411 52.8722 15.4748 53.486 17.1423C53.6802 17.755 53.7667 18.397 53.7418 19.0395C53.7527 19.8185 53.5306 20.5827 53.1044 21.233C52.9455 21.5201 52.7148 21.7606 52.4351 21.9305C52.1555 22.1004 51.8366 22.1939 51.51 22.2018C51.2237 22.2152 50.9386 22.1566 50.6806 22.0312C50.4225 21.9059 50.1996 21.7177 50.032 21.4838M99.6169 40.2796L101.575 29.3659C100.799 29.7169 99.9844 29.9742 99.148 30.1324C98.921 33.2487 98.1608 35.7404 96.8675 37.6073C95.5742 39.4743 94.0267 40.4088 92.2248 40.4108C89.9977 40.4108 88.5628 39.4442 87.9202 37.511C87.9041 37.4605 87.8886 37.4101 87.8736 37.3596C86.6508 39.4392 85.0158 40.479 82.9686 40.479C82.5777 40.4732 82.1925 40.3838 81.8385 40.2169C81.4845 40.05 81.1698 39.8092 80.9153 39.5107C80.4632 38.9714 80.182 38.3083 80.1078 37.6068C79.2051 39.2639 78.1393 40.1986 76.9106 40.4108C76.5392 40.4606 76.1648 40.4834 75.7902 40.479C75.3323 40.4755 74.8818 40.3622 74.4761 40.1484C73.2685 39.5429 72.6646 38.3674 72.6646 36.6219C72.7432 35.1138 72.9614 33.6165 73.3166 32.1492C73.6574 30.7584 73.8755 29.3401 73.9686 27.9107C73.9686 26.7426 73.6175 26.1557 72.9204 26.1557C72.2233 26.1557 71.5969 26.8117 71.0507 28.11C70.8835 28.498 70.7509 28.9003 70.6545 29.3119L68.6885 40.2796H64.5142L65.1908 36.5094C63.3117 39.1558 61.1264 40.479 58.6348 40.479C58.029 40.5074 57.4238 40.4102 56.857 40.1931C56.2902 39.9761 55.7739 39.644 55.3402 39.2175C54.5187 38.3743 54.1079 36.9897 54.1079 35.0526C54.1097 32.4382 54.6855 29.8565 55.7941 27.4919C56.4893 25.8111 57.7241 24.413 59.3013 23.5208C60.0255 23.1051 60.8443 22.8854 61.6781 22.883C63.0212 22.883 63.9289 23.1792 64.4124 23.7776C64.9196 24.4614 65.1741 25.3016 65.1321 26.1537C65.1495 27.0744 64.9817 27.989 64.6388 28.8428C64.296 29.6965 63.7852 30.4718 63.137 31.1219C61.9151 32.4338 60.2474 33.2351 58.4653 33.3668C58.4151 34.0106 58.3975 34.4663 58.3975 34.7342C58.3975 35.9023 58.5711 36.6774 58.9191 37.0473C59.1113 37.2403 59.342 37.3899 59.5961 37.4862C59.8502 37.5825 60.1217 37.6233 60.3926 37.6058C61.4003 37.6406 62.3901 37.3315 63.2012 36.7289C64.1155 35.9828 64.9268 35.1174 65.6136 34.1555L67.5826 23.1837H71.7614L71.4474 24.9498C72.3893 23.6848 73.5197 23.0525 74.8287 23.0525C75.2537 23.0387 75.6771 23.1113 76.0735 23.2659C76.4699 23.4206 76.8312 23.6542 77.1358 23.9527C77.4625 24.3115 77.7126 24.734 77.8705 25.1941C78.0283 25.6541 78.0907 26.1418 78.0536 26.627C78.0339 27.9753 77.8735 29.3178 77.5751 30.6324L76.8795 33.937C76.7467 34.5168 76.6708 35.1083 76.6528 35.703C76.6528 36.6829 77.0039 37.1729 77.7155 37.1729C78.0065 37.1875 78.2964 37.1278 78.5583 36.9994C78.8201 36.8709 79.0454 36.6779 79.2131 36.4382C79.667 35.7314 80.0167 34.9622 80.2513 34.1545L82.2173 23.1868H86.3961L84.3137 34.8039C84.2375 35.2057 84.1987 35.6138 84.1978 36.0229C84.1773 36.1821 84.194 36.3438 84.2466 36.4953C84.2991 36.6467 84.386 36.7838 84.5005 36.8956C84.6149 37.0073 84.7537 37.0907 84.9057 37.139C85.0578 37.1873 85.219 37.1993 85.3764 37.1739C85.6867 37.1575 85.9893 37.0711 86.2619 36.9211C86.5345 36.7712 86.7701 36.5615 86.9512 36.3075C87.2028 36.0064 87.4156 35.6747 87.5847 35.3201C87.5847 35.2979 87.5847 35.2756 87.5847 35.2534C87.5853 34.4128 87.645 33.5733 87.7632 32.7411C87.8887 31.8539 88.0744 30.9764 88.3189 30.1147C88.7824 28.297 89.6386 26.6044 90.8266 25.1577C91.3901 24.448 92.1053 23.8751 92.919 23.4815C93.7327 23.088 94.6241 22.884 95.5269 22.8845C98.0052 22.8845 99.2451 24.7039 99.2468 28.3426V28.3769C99.4062 28.405 99.568 28.4165 99.7298 28.4112C100.43 28.3614 101.112 28.1613 101.73 27.8244L101.866 27.7588L102.686 23.1868H106.865L106.493 25.306C106.991 24.7916 107.523 24.3123 108.086 23.8715C108.618 23.4329 109.283 23.1916 109.971 23.1878C110.27 23.1717 110.568 23.236 110.835 23.3742C111.101 23.5123 111.327 23.7193 111.488 23.9739C111.803 24.4112 111.981 24.9329 112 25.4725C112.032 26.1843 111.835 26.8876 111.44 27.4783C111.296 27.7086 111.097 27.8995 110.862 28.0337C110.627 28.1679 110.362 28.2413 110.092 28.2473C109.895 28.2756 109.695 28.251 109.51 28.176C109.326 28.1009 109.165 27.978 109.044 27.8199C108.882 27.5556 108.775 27.2608 108.73 26.9535C108.704 26.7153 108.654 26.4806 108.579 26.2531C108.555 26.1709 108.504 26.0997 108.433 26.0518C108.362 26.0039 108.277 25.9823 108.193 25.9907C107.818 25.9844 107.451 26.0982 107.144 26.3157C106.767 26.6055 106.421 26.9339 106.111 27.2956L103.792 40.2801L99.6169 40.2796Z" fill="#2B2B2B"/>
<path d="M79.7985 43.6194C79.7448 43.6189 79.6914 43.6106 79.64 43.5947C79.2544 43.4776 78.8541 43.4167 78.4514 43.4141C78.2478 43.4156 78.0446 43.4325 77.8435 43.4645C77.6108 43.5008 77.3802 43.5502 77.1529 43.6124C77.1529 43.9767 77.1415 44.5178 77.1188 45.2356C77.2596 45.2249 77.7516 45.1744 78.5948 45.0842C79.0756 45.0321 79.38 45.006 79.5081 45.006C79.5787 45.0049 79.6487 45.018 79.7142 45.0445C79.7797 45.071 79.8392 45.1104 79.8893 45.1604C79.9426 45.2137 79.9842 45.2775 80.0115 45.3479C80.0388 45.4183 80.0511 45.4937 80.0477 45.5691C80.0551 45.6378 80.0483 45.7072 80.0278 45.7731C80.0072 45.8389 79.9734 45.8998 79.9284 45.9519C79.8834 46.004 79.8282 46.0462 79.7662 46.0759C79.7043 46.1055 79.6369 46.122 79.5683 46.1242C79.3677 46.1407 79.0668 46.1681 78.6655 46.2064C78.3081 46.2502 77.7695 46.3037 77.0496 46.3669C77.0322 46.7147 77.0233 46.9954 77.023 47.2091C76.993 47.5173 77.0225 47.8284 77.1098 48.1254C77.1375 48.161 77.296 48.1789 77.5852 48.1789C77.7414 48.1789 77.9768 48.1747 78.2914 48.1663C78.606 48.1578 78.8414 48.1538 78.9975 48.1542C79.0723 48.1516 79.1467 48.1433 79.2202 48.1294C79.2926 48.1157 79.3658 48.1075 79.4394 48.1047C79.5764 48.1017 79.7096 48.1501 79.813 48.2404C79.8728 48.2935 79.9199 48.3596 79.9506 48.4336C79.9814 48.5076 79.9951 48.5877 79.9906 48.6678C80.0034 48.7995 79.9644 48.9309 79.8818 49.0339C79.7993 49.1368 79.6798 49.2031 79.5492 49.2183C79.0301 49.2865 78.5063 49.3127 77.9829 49.2965C77.1624 49.2965 76.6275 49.1761 76.3781 48.9353C76.1036 48.6695 75.9665 48.0943 75.9668 47.2096C75.9668 46.8426 75.9912 46.2914 76.04 45.556C76.0888 44.8207 76.1134 44.2707 76.1137 43.906C76.1099 43.7636 76.0974 43.6215 76.0761 43.4807C76.0549 43.3398 76.0424 43.1977 76.0385 43.0553C76.0385 42.6388 76.2145 42.4306 76.5666 42.4306C76.6768 42.43 76.7842 42.4654 76.8725 42.5315C77.1463 42.456 77.4241 42.3964 77.7046 42.3529C77.9514 42.3145 78.2006 42.2946 78.4504 42.2934C78.9679 42.2739 79.4844 42.3547 79.9715 42.5315C80.0779 42.5687 80.1693 42.6398 80.2319 42.7339C80.2945 42.8281 80.3249 42.9402 80.3186 43.0533C80.32 43.1916 80.2717 43.3258 80.1827 43.4312C80.1378 43.4909 80.0795 43.5392 80.0125 43.572C79.9456 43.6048 79.8719 43.6212 79.7975 43.6199" fill="#2B2B2B"/>
<path d="M81.5047 48.9286C81.4343 48.9288 81.3646 48.9141 81.3003 48.8854C81.2359 48.8567 81.1782 48.8147 81.131 48.7621C81.0316 48.6562 80.9776 48.5152 80.9806 48.3696C80.9806 48.0957 80.9925 47.6848 81.0162 47.1369C81.04 46.5889 81.052 46.178 81.0523 45.9042C81.0523 45.6014 81.0466 45.1453 81.0353 44.5357C81.0239 43.9262 81.0182 43.47 81.0182 43.1673C81.0265 42.9974 81.0982 42.8369 81.2188 42.7177C81.2696 42.6516 81.334 42.5973 81.4076 42.5586C81.4811 42.5199 81.5622 42.4978 81.6451 42.4937C81.8656 42.5448 82.0769 42.6299 82.2715 42.7459C82.6617 42.9478 82.8933 43.0615 82.9662 43.087C83.6816 43.3333 84.3285 43.7474 84.8534 44.295C85.1429 44.5738 85.3744 44.9078 85.5345 45.2774C85.6945 45.647 85.7799 46.045 85.7858 46.4481C85.7867 46.9179 85.6769 47.3812 85.4653 47.7999C85.2653 48.2186 84.9625 48.5791 84.5856 48.8474C84.057 49.1735 83.4417 49.3285 82.8227 49.2915C82.6086 49.2875 82.3957 49.2585 82.1883 49.2052C81.9459 49.1535 81.7146 49.0589 81.5052 48.9256M83.6267 44.7012C83.1228 44.4007 82.598 44.1371 82.0564 43.9126V47.9805C82.1592 48.0511 82.2734 48.1032 82.3939 48.1344C82.5327 48.1698 82.6755 48.1868 82.8187 48.1849C83.2241 48.2172 83.6302 48.1318 83.9888 47.9386C84.2182 47.7761 84.4022 47.5568 84.5229 47.3019C84.6538 47.0421 84.7226 46.755 84.7235 46.4638C84.7059 46.1006 84.5959 45.7481 84.404 45.44C84.2121 45.1319 83.9448 44.8786 83.6277 44.7043" fill="#2B2B2B"/>
<path d="M89.5468 44.0307C89.4261 44.0307 89.0951 43.9923 88.5538 43.9156C88.5187 44.4202 88.5011 45.09 88.5011 45.9249L88.4971 47.7697C88.8315 47.7616 89.1725 47.7576 89.5202 47.7576C89.591 47.7559 89.6612 47.7698 89.7261 47.7982C89.7909 47.8266 89.8489 47.8689 89.8959 47.9221C89.9949 48.0291 90.0488 48.1705 90.0463 48.3167C90.0498 48.4624 89.9957 48.6035 89.8959 48.7092C89.847 48.762 89.7875 48.8038 89.7213 48.8317C89.6552 48.8596 89.5839 48.8731 89.5122 48.8712C89.3681 48.8712 89.1521 48.8747 88.8642 48.8818C88.5763 48.8889 88.3604 48.8922 88.2163 48.8919C87.9604 48.8994 87.7053 48.9233 87.4524 48.9635C87.1996 49.0039 86.9445 49.028 86.6886 49.0357C86.6168 49.0376 86.5455 49.0241 86.4793 48.9961C86.4132 48.968 86.3537 48.9262 86.3049 48.8732C86.2052 48.7675 86.1511 48.6264 86.1544 48.4806C86.154 48.4067 86.1682 48.3334 86.1963 48.265C86.2243 48.1967 86.2657 48.1347 86.3179 48.0826C86.3702 48.0306 86.4322 47.9896 86.5004 47.962C86.5687 47.9344 86.6416 47.9209 86.7151 47.9221C86.9571 47.9173 87.1986 47.8968 87.4379 47.8605C87.4325 47.5372 87.4299 46.9181 87.4299 46.0031C87.4299 45.258 87.4551 44.5472 87.5056 43.8707L86.6866 43.8955C86.6156 43.8973 86.5451 43.8839 86.4796 43.8562C86.4142 43.8286 86.3553 43.7873 86.3069 43.735C86.257 43.6818 86.218 43.6192 86.1921 43.5508C86.1663 43.4824 86.1542 43.4095 86.1565 43.3364C86.1535 43.2641 86.165 43.192 86.1901 43.1242C86.2153 43.0565 86.2536 42.9944 86.3029 42.9418C86.391 42.8496 86.5093 42.7926 86.6359 42.7813C86.8506 42.7595 87.2235 42.7485 87.7548 42.7485C88.3739 42.7611 88.9912 42.8188 89.602 42.9211C89.6693 42.9269 89.7347 42.9464 89.7943 42.9784C89.8538 43.0104 89.9063 43.0543 89.9485 43.1073C89.9907 43.1604 90.0218 43.2215 90.0398 43.287C90.0578 43.3524 90.0624 43.4209 90.0533 43.4883C90.0571 43.5662 90.0434 43.6439 90.0132 43.7158C89.9831 43.7877 89.9374 43.8518 89.8793 43.9035C89.7912 43.9856 89.6754 44.031 89.5553 44.0307" fill="#2B2B2B"/>
<path d="M95.135 43.9604C94.9387 43.9604 94.6329 43.9452 94.2177 43.915C93.8164 43.885 93.5107 43.8714 93.3004 43.8741C93.3107 44.1863 93.3442 44.7423 93.4007 45.5423C93.4535 46.2487 93.4799 46.8074 93.4799 47.2185C93.4799 47.3117 93.4886 47.4501 93.506 47.6338C93.5234 47.8175 93.5322 47.9559 93.5326 48.0491C93.5356 48.241 93.4942 48.431 93.4117 48.6041C93.3782 48.6953 93.3183 48.7744 93.2395 48.8308C93.1608 48.8872 93.067 48.9185 92.9703 48.9205C92.8345 48.9216 92.7034 48.8701 92.6042 48.7767C92.5469 48.7267 92.5012 48.6647 92.4705 48.5949C92.4398 48.5251 92.4248 48.4493 92.4267 48.373C92.4287 48.3144 92.4349 48.2561 92.4452 48.1984C92.4561 48.1395 92.4625 48.0797 92.4643 48.0198C92.4643 47.8936 92.4561 47.7033 92.4397 47.4486C92.4233 47.194 92.4151 47.0022 92.4151 46.8734C92.4151 46.5064 92.3887 46.0092 92.3359 45.3818C92.2754 44.6613 92.2401 44.1641 92.2301 43.8903H92.034C91.5849 43.9021 91.1361 43.8579 90.6979 43.7586C90.5741 43.7371 90.4627 43.6701 90.3852 43.5706C90.3077 43.4711 90.2697 43.3462 90.2786 43.2202C90.2781 43.082 90.3263 42.9481 90.4145 42.8422C90.462 42.7782 90.5253 42.7277 90.5982 42.6959C90.671 42.6641 90.7509 42.6521 90.8298 42.6611C90.9177 42.6668 91.1184 42.6902 91.4316 42.7312C91.6312 42.7579 91.8322 42.7731 92.0335 42.7766C92.187 42.7766 92.4165 42.7739 92.7221 42.7685C93.0277 42.7632 93.2572 42.7605 93.4107 42.7605C93.6019 42.7605 93.8888 42.7748 94.2713 42.8034C94.6538 42.832 94.9407 42.8464 95.1319 42.8468C95.2029 42.8452 95.2734 42.8587 95.3388 42.8863C95.4042 42.914 95.4631 42.9552 95.5116 43.0072C95.5614 43.0597 95.6003 43.1216 95.6261 43.1894C95.652 43.2571 95.6642 43.3293 95.6621 43.4018C95.6661 43.5488 95.612 43.6915 95.5116 43.7984C95.4634 43.851 95.4046 43.8927 95.3391 43.9207C95.2737 43.9488 95.2031 43.9624 95.1319 43.9609" fill="#2B2B2B"/>
<path d="M98.5887 49.1383C97.8902 49.1557 97.2109 48.907 96.6869 48.4419C96.4136 48.2018 96.1966 47.9036 96.0517 47.5689C95.9068 47.2342 95.8375 46.8713 95.8489 46.5064C95.8427 45.5933 96.1236 44.7016 96.6513 43.9587C96.8757 43.6201 97.168 43.3326 97.5095 43.1146C97.851 42.8966 98.2342 42.753 98.6342 42.693C99.0342 42.633 99.4423 42.658 99.8322 42.7663C100.222 42.8746 100.585 43.0639 100.898 43.3219C101.133 43.5904 101.312 43.9036 101.425 44.2431C101.538 44.5827 101.582 44.9415 101.554 45.2984C101.564 46.1973 101.306 47.0786 100.815 47.8294C100.591 48.2262 100.268 48.5567 99.8767 48.7871C99.4856 49.0175 99.0409 49.1397 98.5877 49.1413M98.9237 43.7791C98.6279 43.7904 98.3399 43.8779 98.0873 44.0333C97.8348 44.1887 97.6261 44.4068 97.4813 44.6666C97.1104 45.2075 96.9141 45.8502 96.9191 46.5074C96.9125 46.7173 96.9529 46.926 97.0372 47.1181C97.1215 47.3102 97.2475 47.4809 97.4061 47.6175C97.7352 47.8975 98.1564 48.044 98.5872 48.0282C98.8759 48.0183 99.1566 47.9307 99.4003 47.7746C99.6439 47.6185 99.8415 47.3996 99.9724 47.1406C100.315 46.5894 100.492 45.9501 100.482 45.2999C100.505 45.0862 100.486 44.87 100.425 44.664C100.364 44.4579 100.263 44.2662 100.127 44.1C99.7783 43.8493 99.3503 43.7349 98.9237 43.7791Z" fill="#2B2B2B"/>
<path d="M106.044 48.9368C105.973 48.9352 105.903 48.9191 105.839 48.8894C105.775 48.8597 105.717 48.8171 105.67 48.7642C104.974 48.0286 104.112 47.4731 103.156 47.145C103.184 47.9422 103.198 48.3848 103.198 48.4726C103.202 48.6195 103.148 48.762 103.047 48.8691C102.999 48.9201 102.94 48.9606 102.876 48.9882C102.811 49.0159 102.742 49.0302 102.671 49.0302C102.601 49.0302 102.532 49.0159 102.467 48.9882C102.402 48.9606 102.344 48.9201 102.295 48.8691C102.195 48.762 102.141 48.6195 102.145 48.4726C102.145 48.267 102.147 47.9596 102.152 47.5502C102.157 47.1408 102.16 46.8333 102.16 46.6278L102.167 43.3116C102.166 43.1386 102.217 42.9693 102.315 42.8267C102.371 42.7385 102.45 42.6679 102.545 42.6233C102.639 42.5786 102.744 42.5617 102.847 42.5744C103.458 42.6239 103.772 42.65 103.787 42.6526C104.101 42.6873 104.406 42.7808 104.685 42.9281C105.76 43.5172 106.297 44.2471 106.297 45.1181C106.301 45.4655 106.181 45.8029 105.959 46.0692C105.683 46.3808 105.335 46.62 104.946 46.766C105.514 47.0897 106.023 47.5094 106.45 48.0068C106.536 48.1092 106.583 48.2388 106.583 48.3726C106.584 48.446 106.57 48.5189 106.543 48.587C106.515 48.655 106.475 48.717 106.424 48.7692C106.376 48.8221 106.318 48.8643 106.253 48.893C106.188 48.9217 106.118 48.9363 106.047 48.9358M103.627 43.7668C103.607 43.7641 103.46 43.7531 103.185 43.734V45.9158C103.248 45.9185 103.304 45.9198 103.351 45.9198C103.822 45.9487 104.292 45.8622 104.722 45.6675C104.853 45.593 104.972 45.4972 105.073 45.384C105.153 45.3144 105.209 45.2209 105.233 45.117C105.217 44.9376 105.161 44.7642 105.068 44.6103C104.975 44.4564 104.848 44.3261 104.697 44.2295C104.39 43.9754 104.019 43.8144 103.625 43.7653" fill="#2B2B2B"/>
<path d="M111.459 49.0107C111.26 49.0026 111.059 48.7479 110.857 48.2467C110.712 47.8845 110.597 47.5106 110.514 47.1291C110.327 47.1593 110.023 47.1894 109.6 47.2194C109.294 47.2385 108.989 47.2742 108.687 47.3264C108.571 47.6291 108.37 48.0832 108.085 48.6887C108.044 48.777 107.979 48.8518 107.897 48.9042C107.815 48.9567 107.721 48.9847 107.624 48.9849C107.484 48.9847 107.35 48.9294 107.25 48.831C107.196 48.7817 107.153 48.721 107.124 48.6533C107.096 48.5857 107.082 48.5125 107.084 48.439C107.213 47.9451 107.398 47.468 107.636 47.017C107.602 46.9423 107.587 46.8607 107.591 46.7789C107.601 46.6474 107.723 46.5446 107.957 46.4706C108.314 45.7978 108.712 45.0993 109.15 44.375C109.779 43.3369 110.166 42.8179 110.312 42.8179C110.589 42.8179 110.773 43 110.867 43.3643C110.917 43.6577 110.996 44.0973 111.104 44.6833C111.258 45.4725 111.445 46.3752 111.667 47.3914C111.722 47.5755 111.786 47.7565 111.859 47.9339C111.934 48.1018 111.98 48.281 111.995 48.4642C111.997 48.5385 111.983 48.6124 111.955 48.6811C111.927 48.7497 111.884 48.8116 111.831 48.8628C111.783 48.9131 111.725 48.9525 111.661 48.9786C111.597 49.0047 111.528 49.0168 111.459 49.0142M110.051 44.7984C109.855 45.1654 109.584 45.6653 109.239 46.298C109.413 46.2627 109.59 46.2408 109.767 46.2324C110.049 46.2132 110.227 46.1981 110.3 46.187C110.24 45.8311 110.156 45.3681 110.049 44.7979" fill="#2B2B2B"/>
</g>
</svg>
